<svg xmlns="http://www.w3.org/2000/svg" viewBox="0 0 750 500"><g id="freepik--background-complete--inject-70"><path d="M186.18,98.61c-7.19,0-128.17.8-135.77.56-.55,0-.84-.82-.3-1.09,4.79-2.37,10.23-1.9,15.21-3.58,2.93-1,4.73-2.9,6.77-5.1a14,14,0,0,1,6.29-4.11,13.31,13.31,0,0,1,6.86-.21c2.45.58,4.58,2,6.92,2.87,5.82,2.2,11.46.11,15.61-4.19,3.43-3.54,6.79-6.89,11.44-8.8a15.17,15.17,0,0,1,12.12-.16c4.44,2,7.48,6,11.65,8.48,4.94,2.89,10.85,2.21,16.31,3.08s9.65,5.47,14.43,8.11a10.18,10.18,0,0,0,5.22,1.62c1.07,0,2.12-.32,3.18-.45,1.65-.2,3.21-.16,4.32,1.22C186.71,97.19,186.65,98.61,186.18,98.61Z" style="fill:#ebebeb"></path><path d="M686.14,185.73c-7.19,0-128.17.8-135.77.55-.55,0-.84-.82-.3-1.08,4.8-2.38,10.23-1.9,15.21-3.58,2.94-1,4.73-2.9,6.77-5.1a14,14,0,0,1,6.29-4.11,13.31,13.31,0,0,1,6.86-.22c2.45.59,4.58,2,6.93,2.88,5.81,2.19,11.46.11,15.6-4.19,3.43-3.55,6.79-6.89,11.44-8.8a15.21,15.21,0,0,1,12.12-.17c4.44,2,7.49,6.06,11.65,8.49,4.95,2.89,10.86,2.2,16.31,3.07s9.65,5.47,14.44,8.12a10.22,10.22,0,0,0,5.21,1.61,31.16,31.16,0,0,0,3.18-.44c1.65-.21,3.21-.16,4.32,1.21C686.67,184.31,686.62,185.73,686.14,185.73Z" style="fill:#ebebeb"></path><path d="M699.87,62.39c-5.25,0-93.58.58-99.13.4-.4,0-.61-.6-.21-.79,3.5-1.74,7.47-1.39,11.1-2.61,2.14-.73,3.46-2.12,4.94-3.73a10.2,10.2,0,0,1,4.6-3,9.75,9.75,0,0,1,5-.16c1.79.43,3.35,1.46,5.06,2.1,4.24,1.61,8.37.08,11.39-3.06,2.5-2.58,5-5,8.36-6.42a11.05,11.05,0,0,1,8.84-.12c3.24,1.47,5.47,4.42,8.51,6.19,3.61,2.11,7.92,1.61,11.91,2.25s7,4,10.53,5.92a7.45,7.45,0,0,0,3.81,1.18c.79,0,1.55-.23,2.32-.32,1.21-.15,2.35-.12,3.16.88C700.26,61.35,700.22,62.39,699.87,62.39Z" style="fill:#ebebeb"></path><path d="M439.27,84.45c-5.25,0-93.58.59-99.13.41-.4,0-.62-.6-.22-.8,3.5-1.73,7.47-1.38,11.11-2.61,2.14-.72,3.45-2.12,4.93-3.72a10.25,10.25,0,0,1,4.6-3,9.64,9.64,0,0,1,5-.16c1.8.43,3.35,1.46,5.06,2.1,4.25,1.6,8.37.08,11.4-3.06,2.5-2.59,5-5,8.35-6.42a11.08,11.08,0,0,1,8.85-.12c3.24,1.46,5.46,4.42,8.51,6.19,3.6,2.11,7.92,1.61,11.9,2.25s7.05,4,10.54,5.92A7.42,7.42,0,0,0,434,82.61a22.72,22.72,0,0,0,2.32-.33c1.2-.14,2.34-.11,3.15.89C439.65,83.42,439.61,84.45,439.27,84.45Z" style="fill:#ebebeb"></path><path d="M282,114.37c-5.25,0-93.58.58-99.13.4-.4,0-.61-.6-.21-.79,3.5-1.74,7.47-1.39,11.1-2.61,2.14-.72,3.45-2.12,4.94-3.73a10.2,10.2,0,0,1,4.6-3,9.75,9.75,0,0,1,5-.16c1.79.43,3.35,1.46,5.06,2.11,4.24,1.6,8.36.07,11.39-3.07,2.5-2.58,5-5,8.36-6.42a11.05,11.05,0,0,1,8.84-.12c3.24,1.47,5.47,4.42,8.51,6.19,3.61,2.11,7.92,1.61,11.91,2.25s7,4,10.53,5.92a7.36,7.36,0,0,0,3.81,1.18c.79,0,1.55-.23,2.32-.32,1.21-.15,2.35-.12,3.16.89C282.36,113.33,282.31,114.37,282,114.37Z" style="fill:#ebebeb"></path><path d="M258.5,52.19c-5.25,0-93.58.58-99.13.4a.43.43,0,0,1-.21-.79c3.5-1.73,7.46-1.39,11.1-2.61,2.14-.72,3.45-2.12,4.94-3.73a10.28,10.28,0,0,1,4.6-3,9.74,9.74,0,0,1,5-.15c1.79.42,3.35,1.45,5.06,2.1,4.24,1.6,8.36.08,11.39-3.06,2.5-2.59,5-5,8.36-6.43a11.05,11.05,0,0,1,8.84-.12c3.24,1.47,5.47,4.42,8.51,6.2,3.61,2.1,7.92,1.61,11.91,2.24s7,4,10.53,5.93a7.55,7.55,0,0,0,3.81,1.18c.78,0,1.55-.24,2.32-.33,1.21-.15,2.35-.12,3.16.89C258.88,51.15,258.84,52.19,258.5,52.19Z" style="fill:#ebebeb"></path><path d="M518.65,135.89c-.1.29-139.21,0-137.46,0,.8,0-1.21-1.2-.43-1.59,4.53-2.24,9.48-2.31,14.42-2.76a22.26,22.26,0,0,0,8.42-2c2.62-1.38,4.25-3.76,6.11-6a26.13,26.13,0,0,1,23.76-9c9.89,1.55,17.69,9.08,27.6,10.47,5.95.83,11.58-1.47,17.4-2.28a21.24,21.24,0,0,1,13.06,2.38c3.14,1.56,6,2.87,9.58,3.11,2.73.2,5.46-.11,8.19-.14a18.34,18.34,0,0,1,12.05,4.81C521.79,133.28,523.19,135.89,518.65,135.89Z" style="fill:#ebebeb"></path></g><g id="freepik--Sign--inject-70"><rect x="664.23" y="49.25" width="7" height="313.15" style="fill:#37474f"></rect><rect x="661.72" y="284.29" width="12.01" height="78.11" style="fill:#263238"></rect><polygon points="699.88 86.06 699.88 129.05 635.57 129.05 635.57 86.06 667.73 53.91 699.88 86.06" style="fill:#1743E3"></polygon><path d="M696.58,125.74h-57.7V87.31l28.85-28.85,28.85,28.85Zm-56.85-.86h56V87.66l-28-28-28,28Z" style="fill:#263238"></path><path d="M671.8,75.66H653.55l-1.94,12.52v9.61h22.13V88.18Zm-13.26,1.09h8.27v1.59h-8.27Zm-4.22,17.41A1.16,1.16,0,1,1,655.47,93,1.16,1.16,0,0,1,654.32,94.16Zm-.13-6L655.47,80h14.41l1.28,8.19Zm16.85,6A1.16,1.16,0,1,1,672.2,93,1.16,1.16,0,0,1,671,94.16Z" style="fill:#263238"></path><rect x="653.12" y="97.79" width="2.4" height="4.45" style="fill:#263238"></rect><rect x="669.84" y="97.79" width="2.4" height="4.45" style="fill:#263238"></rect><path d="M681.06,87.75a1.7,1.7,0,1,0-1.71,1.7A1.71,1.71,0,0,0,681.06,87.75Z" style="fill:#263238"></path><path d="M683.82,92.34l0,.13v0s-.27,1.76-.51,2.7a.65.65,0,0,1-.77.38.79.79,0,0,1-.5-.88c.13-.73.24-1.45.35-2.18a.26.26,0,0,0,0-.18c-.27-.3-.55-.58-.83-.87,0,0,0,0,0,0v.12c.1.71.22,1.4.31,2.11.06.48.08,1,.12,1.45,0,.12,0,.24,0,.36,0,.51.08,1,.14,1.54a5.16,5.16,0,0,0,.19,1.29c.3.85.56,1.7.85,2.55a1.45,1.45,0,0,1,.06.41.9.9,0,0,1-.81.74.78.78,0,0,1-.85-.57l-1-3a1.27,1.27,0,0,1-.06-.28c0-.38-.07-.75-.09-1.14,0-.12,0-.17-.17-.16a1.26,1.26,0,0,1-.38-.06c-.11,0-.16,0-.21.09-.25.4-.51.8-.75,1.2a.57.57,0,0,0-.07.31c.1.92.19,1.84.34,2.75a.83.83,0,0,1-.85,1,.78.78,0,0,1-.82-.64c-.14-1.12-.27-2.25-.41-3.37a.78.78,0,0,1,.12-.51c.43-.67.85-1.35,1.27-2a.39.39,0,0,0,.06-.2q-.12-.75-.24-1.53c-.06-.36-.11-.72-.17-1.13a5,5,0,0,0-.33.44.64.64,0,0,1-.8.28l-2.64-.62a.68.68,0,0,1-.5-.86.67.67,0,0,1,.83-.52l2.08.5a.19.19,0,0,0,.24-.09l1.05-1.4a.48.48,0,0,1,.18-.17,3.52,3.52,0,0,1,1.87-.47,6,6,0,0,0,1.34-.08.56.56,0,0,1,.54.18c.56.56,1.11,1.11,1.68,1.66A.77.77,0,0,1,683.82,92.34Z" style="fill:#263238"></path><path d="M645.16,109.67a.35.35,0,0,1,.5,0,2.24,2.24,0,0,0,1.31.52,1.51,1.51,0,0,0,.86-.25.59.59,0,0,0,.29-.49.38.38,0,0,0-.06-.22.65.65,0,0,0-.2-.21,2.69,2.69,0,0,0-.94-.32h0a3.78,3.78,0,0,1-.88-.27,1.41,1.41,0,0,1-.64-.54,1,1,0,0,1-.16-.56,1.25,1.25,0,0,1,.55-1,2,2,0,0,1,1.19-.37,2.71,2.71,0,0,1,1.49.55.36.36,0,0,1,.1.49.34.34,0,0,1-.49.1,2,2,0,0,0-1.1-.44,1.28,1.28,0,0,0-.77.24.54.54,0,0,0-.26.43.36.36,0,0,0,0,.19.66.66,0,0,0,.19.18,2.49,2.49,0,0,0,.86.3h0a4.23,4.23,0,0,1,1,.29,1.69,1.69,0,0,1,.69.57,1.16,1.16,0,0,1,.16.59,1.33,1.33,0,0,1-.59,1.06,2.13,2.13,0,0,1-1.27.39,3,3,0,0,1-1.76-.69A.36.36,0,0,1,645.16,109.67Z" style="fill:#263238"></path><path d="M649.67,108.4a2.54,2.54,0,0,1,4.11-1.94.41.41,0,0,1,.07.55.4.4,0,0,1-.55.07,1.75,1.75,0,0,0-1.11-.37,1.81,1.81,0,0,0-1.23.49,1.7,1.7,0,0,0-.5,1.2,1.66,1.66,0,0,0,.5,1.19,1.82,1.82,0,0,0,1.23.5,1.77,1.77,0,0,0,1.11-.38.42.42,0,0,1,.55.07.4.4,0,0,1-.07.55,2.54,2.54,0,0,1-1.59.54A2.52,2.52,0,0,1,649.67,108.4Z" style="fill:#263238"></path><path d="M655.18,110.49v-4a.37.37,0,0,1,.38-.38.38.38,0,0,1,.38.38v1.65h1.78v-1.65a.37.37,0,0,1,.38-.38.38.38,0,0,1,.38.38v4a.38.38,0,0,1-.38.38.37.37,0,0,1-.38-.38v-1.65h-1.78v1.65a.38.38,0,0,1-.38.38A.37.37,0,0,1,655.18,110.49Z" style="fill:#263238"></path><path d="M663.63,106.66a2.55,2.55,0,0,1,.69,1.74,2.5,2.5,0,0,1-.69,1.73,2.25,2.25,0,0,1-1.64.74,2.29,2.29,0,0,1-1.68-.74,2.45,2.45,0,0,1-.68-1.73,2.49,2.49,0,0,1,.68-1.74,2.29,2.29,0,0,1,1.68-.74A2.25,2.25,0,0,1,663.63,106.66Zm-.09,1.74a1.82,1.82,0,0,0-.47-1.21,1.49,1.49,0,0,0-1.08-.48,1.5,1.5,0,0,0-1.11.48,1.77,1.77,0,0,0-.47,1.21,1.7,1.7,0,0,0,.47,1.19,1.48,1.48,0,0,0,1.11.5,1.47,1.47,0,0,0,1.08-.5A1.75,1.75,0,0,0,663.54,108.4Z" style="fill:#263238"></path><path d="M669.39,106.66a2.51,2.51,0,0,1,.7,1.74,2.47,2.47,0,0,1-.7,1.73,2.22,2.22,0,0,1-1.64.74,2.3,2.3,0,0,1-1.68-.74,2.49,2.49,0,0,1-.68-1.73,2.54,2.54,0,0,1,.68-1.74,2.3,2.3,0,0,1,1.68-.74A2.22,2.22,0,0,1,669.39,106.66Zm-.08,1.74a1.82,1.82,0,0,0-.47-1.21,1.5,1.5,0,0,0-2.2,0,1.77,1.77,0,0,0-.47,1.21,1.7,1.7,0,0,0,.47,1.19,1.46,1.46,0,0,0,2.2,0A1.75,1.75,0,0,0,669.31,108.4Z" style="fill:#263238"></path><path d="M671.4,110.49v-4a.39.39,0,0,1,.77,0v3.67H674a.38.38,0,0,1,0,.76h-2.25A.38.38,0,0,1,671.4,110.49Z" style="fill:#263238"></path><path d="M677.33,110.49v-4a.38.38,0,0,1,.37-.38h1a1.31,1.31,0,0,1,1.3,1.31,1.26,1.26,0,0,1-.26.78,1.47,1.47,0,0,1-.77,2.72H677.7A.38.38,0,0,1,677.33,110.49Zm.76-2.57h.59a.55.55,0,0,0,.54-.55.54.54,0,0,0-.54-.55h-.59Zm0,2.19H679a.72.72,0,0,0,0-1.43h-.86Z" style="fill:#263238"></path><path d="M683.4,110.87a2,2,0,0,1-2-2v-2.44a.38.38,0,0,1,.76,0v2.44a1.23,1.23,0,1,0,2.45,0v-2.44a.38.38,0,0,1,.38-.38.37.37,0,0,1,.38.38v2.44A2,2,0,0,1,683.4,110.87Z" style="fill:#263238"></path><path d="M686.84,109.67a.35.35,0,0,1,.5,0,2.27,2.27,0,0,0,1.31.52,1.46,1.46,0,0,0,.86-.25.61.61,0,0,0,.3-.49.38.38,0,0,0-.06-.22.83.83,0,0,0-.21-.21,2.69,2.69,0,0,0-.94-.32h0a3.78,3.78,0,0,1-.88-.27,1.47,1.47,0,0,1-.64-.54,1,1,0,0,1-.16-.56,1.28,1.28,0,0,1,.55-1,2,2,0,0,1,1.19-.37,2.75,2.75,0,0,1,1.5.55.36.36,0,0,1,.09.49.33.33,0,0,1-.48.1,2.06,2.06,0,0,0-1.11-.44,1.31,1.31,0,0,0-.77.24.54.54,0,0,0-.26.43.29.29,0,0,0,0,.19.51.51,0,0,0,.18.18,2.49,2.49,0,0,0,.86.3h0a3.94,3.94,0,0,1,.95.29,1.69,1.69,0,0,1,.69.57,1.16,1.16,0,0,1,.16.59,1.31,1.31,0,0,1-.59,1.06,2.11,2.11,0,0,1-1.27.39,3,3,0,0,1-1.75-.69A.35.35,0,0,1,686.84,109.67Z" style="fill:#263238"></path><path d="M659.82,118.53a.39.39,0,0,1-.24.49l-.15,0h0a.54.54,0,0,1-.27-.08.64.64,0,0,1-.22-.24,2,2,0,0,1-.14-.82.63.63,0,0,0-.08-.3.81.81,0,0,0-.21-.2,1.29,1.29,0,0,0-.38-.16h-.81v1.49a.39.39,0,0,1-.39.37.38.38,0,0,1-.38-.37v-4a.37.37,0,0,1,.38-.38h1.23a1.47,1.47,0,0,1,1.47,1.47,1.42,1.42,0,0,1-.54,1.13,1.18,1.18,0,0,1,.25.25,1.38,1.38,0,0,1,.22.75,1.71,1.71,0,0,0,0,.4A.39.39,0,0,1,659.82,118.53Zm-1-2.76a.71.71,0,0,0-.71-.71h-.84v1.41h.84A.7.7,0,0,0,658.86,115.77Z" style="fill:#263238"></path><path d="M664.61,114.9a2.53,2.53,0,0,1,0,3.47,2.24,2.24,0,0,1-1.65.73,2.29,2.29,0,0,1-1.68-.73,2.55,2.55,0,0,1,0-3.47,2.27,2.27,0,0,1,1.68-.74A2.22,2.22,0,0,1,664.61,114.9Zm-.09,1.73a1.79,1.79,0,0,0-.47-1.2,1.48,1.48,0,0,0-2.2,0,1.75,1.75,0,0,0-.47,1.2,1.73,1.73,0,0,0,.47,1.2,1.48,1.48,0,0,0,2.2,0A1.77,1.77,0,0,0,664.52,116.63Z" style="fill:#263238"></path><path d="M668.33,119.1a2,2,0,0,1-2-2v-2.44a.37.37,0,0,1,.37-.38.38.38,0,0,1,.39.38v2.44a1.22,1.22,0,0,0,2.44,0v-2.44a.38.38,0,0,1,.39-.38.37.37,0,0,1,.37.38v2.44A2,2,0,0,1,668.33,119.1Z" style="fill:#263238"></path><path d="M674.66,115.06h-1.09v3.67a.38.38,0,0,1-.76,0v-3.67h-1.08a.38.38,0,0,1-.38-.38.37.37,0,0,1,.38-.38h2.93a.37.37,0,0,1,.38.38A.39.39,0,0,1,674.66,115.06Z" style="fill:#263238"></path><path d="M676.17,118.73v-4a.37.37,0,0,1,.37-.38h2.25a.38.38,0,0,1,.38.38.39.39,0,0,1-.38.38h-1.86v1.26h1.6a.38.38,0,1,1,0,.76h-1.6v1.26h1.86a.39.39,0,0,1,.38.39.38.38,0,0,1-.38.37h-2.25A.37.37,0,0,1,676.17,118.73Z" style="fill:#263238"></path><path d="M669.25,66.36a1.53,1.53,0,1,1-1.52-1.52A1.52,1.52,0,0,1,669.25,66.36Z" style="fill:#dbdbdb"></path><path d="M669.25,122.19a1.53,1.53,0,1,1-1.52-1.52A1.52,1.52,0,0,1,669.25,122.19Z" style="fill:#dbdbdb"></path></g><g id="freepik--Floor--inject-70"><rect x="52.34" y="355.13" width="645.32" height="7.27" style="fill:#c7c7c7"></rect><path d="M97.58,355.13a8.19,8.19,0,0,1,.77,3.63,8.07,8.07,0,0,1-.77,3.64,8.2,8.2,0,0,1-.77-3.64A8.33,8.33,0,0,1,97.58,355.13Z" style="fill:#37474f"></path><path d="M148,355.13a8.19,8.19,0,0,1,.77,3.63,8.07,8.07,0,0,1-.77,3.64,8.2,8.2,0,0,1-.77-3.64A8.33,8.33,0,0,1,148,355.13Z" style="fill:#37474f"></path><path d="M198.46,355.13a9,9,0,0,1,0,7.27,8.2,8.2,0,0,1-.77-3.64A8.33,8.33,0,0,1,198.46,355.13Z" style="fill:#37474f"></path><path d="M248.9,355.13a9,9,0,0,1,0,7.27,8.2,8.2,0,0,1-.77-3.64A8.33,8.33,0,0,1,248.9,355.13Z" style="fill:#37474f"></path><path d="M299.34,355.13a9,9,0,0,1,0,7.27,9,9,0,0,1,0-7.27Z" style="fill:#37474f"></path><path d="M349.78,355.13a9,9,0,0,1,0,7.27,8.2,8.2,0,0,1-.77-3.64A8.33,8.33,0,0,1,349.78,355.13Z" style="fill:#37474f"></path><path d="M400.22,355.13a9,9,0,0,1,0,7.27,9,9,0,0,1,0-7.27Z" style="fill:#37474f"></path><path d="M450.66,355.13a8.33,8.33,0,0,1,.77,3.63,8.2,8.2,0,0,1-.77,3.64,9,9,0,0,1,0-7.27Z" style="fill:#37474f"></path><path d="M501.1,355.13a8.33,8.33,0,0,1,.77,3.63,8.2,8.2,0,0,1-.77,3.64,9,9,0,0,1,0-7.27Z" style="fill:#37474f"></path><path d="M551.54,355.13a9,9,0,0,1,0,7.27,9,9,0,0,1,0-7.27Z" style="fill:#37474f"></path><path d="M602,355.13a8.33,8.33,0,0,1,.77,3.63,8.2,8.2,0,0,1-.77,3.64,9,9,0,0,1,0-7.27Z" style="fill:#37474f"></path><path d="M652.42,355.13a8.33,8.33,0,0,1,.77,3.63,8.2,8.2,0,0,1-.77,3.64,8.07,8.07,0,0,1-.77-3.64A8.19,8.19,0,0,1,652.42,355.13Z" style="fill:#37474f"></path><path d="M51.87,362.4c207-.61,439.24-.62,646.26,0-207,.62-439.24.61-646.26,0Z" style="fill:#263238"></path><rect x="52.34" y="464.13" width="645.32" height="7.27" style="fill:#c7c7c7"></rect><path d="M97.58,464.13a8.19,8.19,0,0,1,.77,3.63,8.1,8.1,0,0,1-.77,3.64,8.23,8.23,0,0,1-.77-3.64A8.33,8.33,0,0,1,97.58,464.13Z" style="fill:#37474f"></path><path d="M148,464.13a8.19,8.19,0,0,1,.77,3.63,8.1,8.1,0,0,1-.77,3.64,8.23,8.23,0,0,1-.77-3.64A8.33,8.33,0,0,1,148,464.13Z" style="fill:#37474f"></path><path d="M198.46,464.13a9,9,0,0,1,0,7.27,8.23,8.23,0,0,1-.77-3.64A8.33,8.33,0,0,1,198.46,464.13Z" style="fill:#37474f"></path><path d="M248.9,464.13a9,9,0,0,1,0,7.27,8.23,8.23,0,0,1-.77-3.64A8.33,8.33,0,0,1,248.9,464.13Z" style="fill:#37474f"></path><path d="M299.34,464.13a9,9,0,0,1,0,7.27,9,9,0,0,1,0-7.27Z" style="fill:#37474f"></path><path d="M349.78,464.13a9,9,0,0,1,0,7.27,8.23,8.23,0,0,1-.77-3.64A8.33,8.33,0,0,1,349.78,464.13Z" style="fill:#37474f"></path><path d="M400.22,464.13a9,9,0,0,1,0,7.27,9,9,0,0,1,0-7.27Z" style="fill:#37474f"></path><path d="M450.66,464.13a8.33,8.33,0,0,1,.77,3.63,8.23,8.23,0,0,1-.77,3.64,9,9,0,0,1,0-7.27Z" style="fill:#37474f"></path><path d="M501.1,464.13a8.33,8.33,0,0,1,.77,3.63,8.23,8.23,0,0,1-.77,3.64,9,9,0,0,1,0-7.27Z" style="fill:#37474f"></path><path d="M551.54,464.13a9,9,0,0,1,0,7.27,9,9,0,0,1,0-7.27Z" style="fill:#37474f"></path><path d="M602,464.13a8.33,8.33,0,0,1,.77,3.63,8.23,8.23,0,0,1-.77,3.64,9,9,0,0,1,0-7.27Z" style="fill:#37474f"></path><path d="M652.42,464.13a8.33,8.33,0,0,1,.77,3.63,8.23,8.23,0,0,1-.77,3.64,8.1,8.1,0,0,1-.77-3.64A8.19,8.19,0,0,1,652.42,464.13Z" style="fill:#37474f"></path><path d="M51.87,471.4c207-.61,439.24-.62,646.26,0-207,.61-439.24.61-646.26,0Z" style="fill:#263238"></path></g><g id="freepik--Bus--inject-70"><path d="M356.54,327.59c-.73,15.76-11.19,35.05-34.43,35.59v0H307.5V288h14.61C346.29,288,357.34,310.39,356.54,327.59Z" style="fill:#263238"></path><path d="M342.69,327.59c-.75,16-11.49,35.6-35.44,35.6s-34.9-22.66-32.5-43C276.56,305,284.88,288,308.26,288,332.44,288,343.49,310.4,342.69,327.59Z" style="fill:#37474f"></path><path d="M674.27,327.59c-.73,15.76-11.19,35.05-34.43,35.59v0H625.23V288h14.61C664,288,675.07,310.39,674.27,327.59Z" style="fill:#263238"></path><path d="M660.42,327.59c-.75,16-11.49,35.6-35.44,35.6s-34.9-22.66-32.5-43C594.29,305,602.61,288,626,288,650.17,288,661.22,310.4,660.42,327.59Z" style="fill:#37474f"></path><path d="M654.88,258.83l31.25,7.54a5.25,5.25,0,0,1,3.71,4.65l3.52,47H654.88Z" style="fill:#1743E3"></path><path d="M654.88,258.83l31.25,7.54a5.25,5.25,0,0,1,3.71,4.65l3.52,47H654.88Z" style="opacity:0.1"></path><path d="M583.08,318.87H542.35V344.4h-45V318.87A41.55,41.55,0,0,1,539.16,280C562.71,280,582,298.39,583.08,318.87Z" style="fill:#1743E3"></path><path d="M583.08,318.87H542.35V344.4h-45V318.87A41.55,41.55,0,0,1,539.16,280C562.71,280,582,298.39,583.08,318.87Z" style="opacity:0.30000000000000004"></path><path d="M584,327.59c-.73,15.76-11.19,35.05-34.43,35.59v0H534.94V288h14.61C573.72,288,584.77,310.39,584,327.59Z" style="fill:#263238"></path><path d="M570.12,327.59c-.74,16-11.49,35.6-35.43,35.6s-34.91-22.66-32.5-43C504,305,512.32,288,535.7,288,559.87,288,570.93,310.4,570.12,327.59Z" style="fill:#37474f"></path><path d="M557.9,327c-.56,11.38-7.86,25.33-24,25.33s-23.43-16.12-21.74-30.59c1.26-10.85,6.92-22.92,22.67-22.92C551.13,298.83,558.5,314.78,557.9,327Z" style="fill:#c7c7c7"></path><path d="M530.49,301.29c.34,4.62,1.5,19.34,3.17,19.34,1.41,0,5.55-13.9,7-18.92a19.2,19.2,0,0,0-5.71-.85A22.46,22.46,0,0,0,530.49,301.29Z" style="fill:#263238"></path><path d="M536.68,321.51c.89.4,8.79-6.24,14.53-11.22a21,21,0,0,0-5.17-5.8C542.32,310.19,535.48,321,536.68,321.51Z" style="fill:#263238"></path><path d="M538.18,323.22c.4.61,8.89-1.72,16.55-4a30.12,30.12,0,0,0-1.74-5.51C546,317.65,537.68,322.48,538.18,323.22Z" style="fill:#263238"></path><path d="M539,325.3c-.08.69,8.52,1.67,16.32,2.42,0-.28.05-.54.06-.82a28.2,28.2,0,0,0-.14-4.57C547.4,323.3,539.07,324.52,539,325.3Z" style="fill:#263238"></path><path d="M552.86,337.36a30.25,30.25,0,0,0,2-6.3c-7.48-2.08-16.22-4.32-16.87-3.6S546.33,333.57,552.86,337.36Z" style="fill:#263238"></path><path d="M543.58,347.94a20.15,20.15,0,0,0,6.91-6.34c-4.81-4.93-13-13.08-14.31-12.56S541.5,343.61,543.58,347.94Z" style="fill:#263238"></path><path d="M526.75,348.87a17.68,17.68,0,0,0,7.17,1.44,21.85,21.85,0,0,0,3-.2c-.26-3.86-1.44-19.89-3.2-19.89C532.3,330.22,528.27,343.62,526.75,348.87Z" style="fill:#263238"></path><path d="M517.45,339.51a21.2,21.2,0,0,0,4.38,6.08c3.73-5.73,9.74-15.28,8.6-15.8C529.6,329.42,522.92,334.87,517.45,339.51Z" style="fill:#263238"></path><path d="M514.87,331.06a30,30,0,0,0,1.2,5.05c6.12-3.47,12.4-7.25,12-7.92S521.37,329.25,514.87,331.06Z" style="fill:#263238"></path><path d="M514.58,323.61a33.23,33.23,0,0,0,0,4.68c6.48-.82,12.52-1.76,12.6-2.44S521.07,324.37,514.58,323.61Z" style="fill:#263238"></path><path d="M514.9,320.64c6.28,1.79,12.56,3.38,13.12,2.76s-6-4.93-11.73-8.54A32.63,32.63,0,0,0,514.9,320.64Z" style="fill:#263238"></path><path d="M518.09,310.66s0,0,0,0c4.64,4.81,11.17,11.28,12.31,10.81s-4-12.56-6.24-17.62A18.6,18.6,0,0,0,518.09,310.66Z" style="fill:#263238"></path><path d="M679.46,318H583c-1.61-20.13-20.64-38-43.86-38a41.58,41.58,0,0,0-41.76,38h0V344.4H412.51L386.11,318H233.36c-1.61-20.13-20.64-38-43.86-38a41.57,41.57,0,0,0-41.75,38H56.46V147.42a22.3,22.3,0,0,1,22.31-22.29H562.94a35.94,35.94,0,0,1,35.71,31.74l1,8.79h-4.44l6.08,56.9,60.26,11.3a9,9,0,0,1,7.12,7.58Z" style="fill:#1743E3"></path><rect x="69.12" y="166.71" width="75.88" height="70.04" style="fill:#455a64"></rect><polygon points="145.01 166.71 145.01 186.43 94.71 236.74 69.13 236.74 69.13 210.95 113.36 166.71 145.01 166.71" style="fill:#fff;opacity:0.1"></polygon><polygon points="132.79 236.74 145.01 224.52 145.01 236.74 132.79 236.74" style="fill:#fff;opacity:0.1"></polygon><polygon points="99.41 166.71 69.13 197.01 69.13 193.84 96.25 166.71 99.41 166.71" style="fill:#fff;opacity:0.1"></polygon><rect x="69.12" y="166.71" width="75.88" height="4.89" style="fill:#263238"></rect><rect x="69.12" y="198.78" width="75.88" height="3.88" style="fill:#1743E3"></rect><rect x="154.37" y="166.71" width="75.88" height="70.04" style="fill:#455a64"></rect><polygon points="164.72 166.71 154.37 177.07 154.37 166.71 164.72 166.71" style="fill:#fff;opacity:0.1"></polygon><polygon points="219.24 166.71 154.37 231.58 154.37 215.16 202.81 166.71 219.24 166.71" style="fill:#fff;opacity:0.1"></polygon><rect x="154.37" y="166.71" width="75.88" height="4.89" style="fill:#263238"></rect><rect x="154.37" y="198.78" width="75.88" height="3.88" style="fill:#1743E3"></rect><rect x="239.62" y="166.71" width="75.88" height="70.04" style="fill:#455a64"></rect><polygon points="266.5 236.74 315.5 187.74 315.5 236.74 266.5 236.74" style="fill:#fff;opacity:0.1"></polygon><rect x="239.62" y="166.71" width="75.88" height="4.89" style="fill:#263238"></rect><rect x="239.62" y="198.78" width="75.88" height="3.88" style="fill:#1743E3"></rect><rect x="324.87" y="166.71" width="76.97" height="70.04" style="fill:#455a64"></rect><polygon points="387.9 166.71 324.88 229.75 324.88 178.37 336.53 166.71 387.9 166.71" style="fill:#fff;opacity:0.1"></polygon><polygon points="401.85 172.04 401.85 188.46 353.57 236.74 337.16 236.74 401.85 172.04" style="fill:#fff;opacity:0.1"></polygon><rect x="324.87" y="166.71" width="76.97" height="4.89" style="fill:#263238"></rect><rect x="324.87" y="198.78" width="76.97" height="3.88" style="fill:#1743E3"></rect><polygon points="601.33 222.56 493.29 222.56 493.29 166.71 595.36 166.71 601.33 222.56" style="fill:#455a64"></polygon><polygon points="598.59 196.94 572.97 222.56 521.6 222.56 577.45 166.71 595.36 166.71 598.59 196.94" style="fill:#fff;opacity:0.1"></polygon><polygon points="537.29 166.71 493.3 210.71 493.3 194.29 520.88 166.71 537.29 166.71" style="fill:#fff;opacity:0.1"></polygon><polygon points="507.83 166.71 493.3 181.25 493.3 178.08 504.67 166.71 507.83 166.71" style="fill:#fff;opacity:0.1"></polygon><polygon points="599.97 209.92 587.34 222.56 584.18 222.56 599.66 207.06 599.97 209.92" style="fill:#fff;opacity:0.1"></polygon><rect x="493.29" y="166.71" width="26.15" height="55.85" style="fill:#fff;opacity:0.1"></rect><polygon points="595.88 171.59 493.29 171.59 493.29 166.71 595.36 166.71 595.88 171.59" style="fill:#263238"></polygon><polygon points="601.33 222.56 493.29 222.56 493.29 217.68 600.8 217.68 601.33 222.56" style="fill:#263238"></polygon><polygon points="537.99 219.3 537.99 216.71 563.08 201.16 563.49 201.5 540.67 217.04 540.67 219.3 537.99 219.3" style="fill:#263238"></polygon><polygon points="570.32 219.3 570.32 216.71 595.41 201.16 595.83 201.5 573.01 217.04 573.01 219.3 570.32 219.3" style="fill:#263238"></polygon><g style="opacity:0.2"><polygon points="666.73 249.55 624.81 249.55 624.6 248.02 666.53 248.02 666.73 249.55"></polygon><polygon points="667.23 253.3 625.3 253.3 625.09 251.77 667.03 251.77 667.23 253.3"></polygon><polygon points="667.73 257.05 625.79 257.05 625.6 255.5 667.52 255.5 667.73 257.05"></polygon><polygon points="668.22 260.78 626.29 260.78 626.09 259.25 668.02 259.25 668.22 260.78"></polygon><polygon points="668.72 264.53 626.79 264.53 626.58 262.99 668.51 262.99 668.72 264.53"></polygon><polygon points="669.21 268.26 627.28 268.26 627.08 266.73 669 266.73 669.21 268.26"></polygon><polygon points="669.7 272.01 627.78 272.01 627.57 270.47 669.5 270.47 669.7 272.01"></polygon><polygon points="670.19 275.75 628.27 275.75 628.06 274.22 670 274.22 670.19 275.75"></polygon><polygon points="670.69 279.49 628.76 279.49 628.57 277.95 670.49 277.95 670.69 279.49"></polygon><polygon points="671.19 283.23 629.27 283.23 629.06 281.7 670.98 281.7 671.19 283.23"></polygon></g><g style="opacity:0.30000000000000004"><path d="M496.4,292.89C507.5,261.36,551,255.4,573.65,278a58.45,58.45,0,0,1,15.54,25.9c-5.72-13.82-15.66-26.07-29.34-32.25-22.77-10.29-52.12-1.72-63.45,21.28Z" style="fill:#fff"></path><path d="M552.61,227c16.95,1.81,33.76,4.69,50.5,7.85l2.41.47a8.82,8.82,0,0,1,7.09,7.55c.49,2.5,1.16,6.21,1.6,9.14.49,3.09.92,6.19,1.21,9.33-1.08-3-2-6-2.91-9s-1.72-6-2.5-9a6.22,6.22,0,0,0-5-5.17c-1.5-.28-4.75-.85-6.29-1.13-15.46-2.9-30.88-6-46.09-10.05Z" style="fill:#fff"></path></g><rect x="56.46" y="239.94" width="428.51" height="9.62" style="opacity:0.30000000000000004"></rect><rect x="56.46" y="266.63" width="428.51" height="9.62" style="opacity:0.30000000000000004"></rect><path d="M189.76,261.09a.79.79,0,0,1,1.1-.1,5,5,0,0,0,2.88,1.16,3.25,3.25,0,0,0,1.88-.56,1.36,1.36,0,0,0,.65-1.08.85.85,0,0,0-.14-.48,1.37,1.37,0,0,0-.45-.45,5.9,5.9,0,0,0-2.06-.71h0a8.32,8.32,0,0,1-1.94-.59,3.22,3.22,0,0,1-1.4-1.17,2.3,2.3,0,0,1-.35-1.24,2.81,2.81,0,0,1,1.2-2.2,4.48,4.48,0,0,1,2.61-.79,6,6,0,0,1,3.28,1.2.78.78,0,0,1,.21,1.07.77.77,0,0,1-1.07.23,4.31,4.31,0,0,0-2.42-1,2.9,2.9,0,0,0-1.69.51,1.19,1.19,0,0,0-.57,1,.69.69,0,0,0,.11.42,1.5,1.5,0,0,0,.4.4,5.2,5.2,0,0,0,1.88.66h0A8.61,8.61,0,0,1,196,258a3.42,3.42,0,0,1,1.5,1.25,2.4,2.4,0,0,1,.37,1.28,2.92,2.92,0,0,1-1.3,2.33,4.71,4.71,0,0,1-2.78.86,6.52,6.52,0,0,1-3.86-1.51A.81.81,0,0,1,189.76,261.09Z" style="fill:#263238"></path><path d="M199.67,258.3a5.53,5.53,0,0,1,5.53-5.42,5.61,5.61,0,0,1,3.47,1.17.9.9,0,0,1,.15,1.21.88.88,0,0,1-1.2.16,3.76,3.76,0,0,0-2.42-.83,3.94,3.94,0,0,0-2.71,1.09,3.69,3.69,0,0,0-1.1,2.62,3.63,3.63,0,0,0,1.1,2.61A3.94,3.94,0,0,0,205.2,262a3.8,3.8,0,0,0,2.42-.83.86.86,0,0,1,1,1.37,5.61,5.61,0,0,1-3.47,1.17A5.51,5.51,0,0,1,199.67,258.3Z" style="fill:#263238"></path><path d="M211.75,262.89V254a.82.82,0,0,1,.83-.83.83.83,0,0,1,.84.83v3.61h3.9V254a.82.82,0,0,1,.83-.83.83.83,0,0,1,.84.83v8.88a.83.83,0,0,1-.84.82.81.81,0,0,1-.83-.82v-3.62h-3.9v3.62a.83.83,0,0,1-.84.82A.81.81,0,0,1,211.75,262.89Z" style="fill:#263238"></path><path d="M230.28,254.49a5.54,5.54,0,0,1,1.52,3.81,5.48,5.48,0,0,1-1.52,3.8,4.92,4.92,0,0,1-3.6,1.61A5.05,5.05,0,0,1,223,262.1a5.41,5.41,0,0,1-1.49-3.8,5.47,5.47,0,0,1,1.49-3.81,5,5,0,0,1,3.68-1.61A4.85,4.85,0,0,1,230.28,254.49Zm-.19,3.81a3.89,3.89,0,0,0-1-2.64,3.24,3.24,0,0,0-4.81,0,3.8,3.8,0,0,0-1,2.64,3.71,3.71,0,0,0,1,2.61,3.2,3.2,0,0,0,4.81,0A3.79,3.79,0,0,0,230.09,258.3Z" style="fill:#263238"></path><path d="M242.93,254.49a5.54,5.54,0,0,1,1.52,3.81,5.48,5.48,0,0,1-1.52,3.8,4.92,4.92,0,0,1-3.6,1.61,5.05,5.05,0,0,1-3.68-1.61,5.41,5.41,0,0,1-1.49-3.8,5.47,5.47,0,0,1,1.49-3.81,5,5,0,0,1,3.68-1.61A4.85,4.85,0,0,1,242.93,254.49Zm-.2,3.81a3.88,3.88,0,0,0-1-2.64,3.23,3.23,0,0,0-2.38-1.07,3.29,3.29,0,0,0-2.44,1.07,3.83,3.83,0,0,0-1,2.64,3.74,3.74,0,0,0,1,2.61,3.31,3.31,0,0,0,2.44,1.09,3.25,3.25,0,0,0,2.38-1.09A3.79,3.79,0,0,0,242.73,258.3Z" style="fill:#263238"></path><path d="M247.35,262.89V254a.82.82,0,0,1,.82-.83.84.84,0,0,1,.85.83v8h4.08a.85.85,0,0,1,.82.85.84.84,0,0,1-.82.82h-4.93A.82.82,0,0,1,247.35,262.89Z" style="fill:#263238"></path><path d="M260.34,262.89V254a.83.83,0,0,1,.83-.83h2.14a2.85,2.85,0,0,1,2.85,2.86,2.81,2.81,0,0,1-.57,1.71,3.22,3.22,0,0,1-1.7,6h-2.72A.83.83,0,0,1,260.34,262.89Zm1.67-5.63h1.3a1.2,1.2,0,0,0,1.18-1.22,1.18,1.18,0,0,0-1.18-1.19H262Zm0,4.78h1.88a1.56,1.56,0,0,0,0-3.11H262Z" style="fill:#263238"></path><path d="M273.65,263.71a4.34,4.34,0,0,1-4.35-4.35V254a.82.82,0,0,1,.83-.83.84.84,0,0,1,.84.83v5.35a2.68,2.68,0,0,0,5.36,0V254a.82.82,0,0,1,.84-.83.82.82,0,0,1,.83.83v5.35A4.35,4.35,0,0,1,273.65,263.71Z" style="fill:#263238"></path><path d="M281.21,261.09a.79.79,0,0,1,1.1-.1,5,5,0,0,0,2.87,1.16,3.28,3.28,0,0,0,1.89-.56,1.35,1.35,0,0,0,.64-1.08.84.84,0,0,0-.13-.48,1.37,1.37,0,0,0-.45-.45,5.88,5.88,0,0,0-2.07-.71h0a8.47,8.47,0,0,1-1.94-.59,3.27,3.27,0,0,1-1.4-1.17,2.38,2.38,0,0,1-.34-1.24,2.81,2.81,0,0,1,1.2-2.2,4.47,4.47,0,0,1,2.6-.79,6,6,0,0,1,3.29,1.2.78.78,0,0,1,.21,1.07.77.77,0,0,1-1.07.23,4.34,4.34,0,0,0-2.43-1,2.89,2.89,0,0,0-1.68.51,1.19,1.19,0,0,0-.57,1,.77.77,0,0,0,.1.42,1.56,1.56,0,0,0,.41.4,5.2,5.2,0,0,0,1.88.66h0a8.61,8.61,0,0,1,2.08.63,3.48,3.48,0,0,1,1.5,1.25,2.39,2.39,0,0,1,.36,1.28,2.91,2.91,0,0,1-1.29,2.33,4.74,4.74,0,0,1-2.79.86,6.52,6.52,0,0,1-3.85-1.51A.81.81,0,0,1,281.21,261.09Z" style="fill:#263238"></path><g style="opacity:0.2"><polygon points="487.57 344.4 484.98 344.4 484.98 167.38 419.39 167.38 419.39 344.4 416.8 344.4 416.8 164.79 487.57 164.79 487.57 344.4"></polygon><rect x="450.89" y="166.09" width="2.59" height="178.31"></rect></g><rect x="423.16" y="170.92" width="24.5" height="173.47" style="fill:#455a64"></rect><rect x="423.16" y="170.92" width="24.5" height="4.89" style="fill:#263238"></rect><polygon points="423.16 321 447.66 296.5 447.66 344.4 423.16 344.4 423.16 321" style="fill:#fff;opacity:0.1"></polygon><polygon points="423.16 264.44 447.66 239.94 447.66 256.35 423.16 280.85 423.16 264.44" style="fill:#fff;opacity:0.1"></polygon><polygon points="423.16 248.23 447.66 223.73 447.66 226.9 423.16 251.4 423.16 248.23" style="fill:#fff;opacity:0.1"></polygon><rect x="456.98" y="170.92" width="24.5" height="173.47" style="fill:#37474f"></rect><rect x="456.98" y="170.93" width="24.5" height="173.47" style="fill:#455a64"></rect><rect x="456.98" y="170.92" width="24.5" height="4.89" style="fill:#263238"></rect><polygon points="481.48 262.68 481.48 314.05 456.98 338.55 456.98 287.18 481.48 262.68" style="fill:#fff;opacity:0.1"></polygon><polygon points="481.48 206.11 481.48 222.53 456.98 247.03 456.98 230.61 481.48 206.11" style="fill:#fff;opacity:0.1"></polygon><polygon points="481.48 189.91 481.48 193.08 456.98 217.58 456.98 214.41 481.48 189.91" style="fill:#fff;opacity:0.1"></polygon><polygon points="481.48 325.26 481.48 328.43 465.51 344.4 462.34 344.4 481.48 325.26" style="fill:#fff;opacity:0.1"></polygon><rect x="416.8" y="344.4" width="70.77" height="5.26" style="fill:#263238"></rect><rect x="413.63" y="349.65" width="77.11" height="5.26" style="fill:#263238"></rect><rect x="50.75" y="293.31" width="18.37" height="28.2" style="fill:#263238"></rect><polygon points="400.45 332.34 64.24 332.34 64.24 318.01 385.89 318.01 400.45 332.34" style="fill:#263238"></polygon><rect x="581.08" y="318.01" width="111.09" height="14.33" style="fill:#263238"></rect><rect x="573.57" y="303.67" width="125.68" height="14.33" style="fill:#c7c7c7"></rect><path d="M233.42,318H147.69c1.14-20,18.25-38,41.81-38S232.29,298,233.42,318Z" style="fill:#1743E3"></path><path d="M233.42,318H147.69c1.14-20,18.25-38,41.81-38S232.29,298,233.42,318Z" style="opacity:0.30000000000000004"></path><path d="M233.38,327.59c-.73,15.76-11.19,35.05-34.43,35.59v0H184.34V288H199C223.12,288,234.17,310.39,233.38,327.59Z" style="fill:#263238"></path><path d="M219.52,327.59c-.74,16-11.49,35.6-35.43,35.6s-34.91-22.66-32.5-43C153.39,305,161.72,288,185.1,288,209.27,288,220.33,310.4,219.52,327.59Z" style="fill:#37474f"></path><path d="M207.3,327c-.56,11.38-7.86,25.33-24,25.33s-23.43-16.12-21.74-30.59c1.26-10.85,6.92-22.92,22.67-22.92C200.53,298.83,207.9,314.78,207.3,327Z" style="fill:#c7c7c7"></path><path d="M179.89,301.29c.34,4.62,1.5,19.34,3.17,19.34,1.41,0,5.55-13.9,7-18.92a19.2,19.2,0,0,0-5.71-.85A22.46,22.46,0,0,0,179.89,301.29Z" style="fill:#263238"></path><path d="M186.08,321.51c.89.4,8.79-6.24,14.53-11.22a21,21,0,0,0-5.17-5.8C191.72,310.19,184.88,321,186.08,321.51Z" style="fill:#263238"></path><path d="M187.58,323.22c.4.61,8.89-1.72,16.55-4a30.12,30.12,0,0,0-1.74-5.51C195.39,317.65,187.09,322.48,187.58,323.22Z" style="fill:#263238"></path><path d="M188.37,325.3c-.08.69,8.52,1.67,16.32,2.42,0-.28.05-.54.06-.82a28.2,28.2,0,0,0-.14-4.57C196.8,323.3,188.47,324.52,188.37,325.3Z" style="fill:#263238"></path><path d="M202.26,337.36a30.25,30.25,0,0,0,2-6.3c-7.48-2.08-16.22-4.32-16.87-3.6S195.73,333.57,202.26,337.36Z" style="fill:#263238"></path><path d="M193,347.94a20.15,20.15,0,0,0,6.91-6.34c-4.81-4.93-13-13.08-14.31-12.56S190.9,343.61,193,347.94Z" style="fill:#263238"></path><path d="M176.15,348.87a17.68,17.68,0,0,0,7.17,1.44,21.85,21.85,0,0,0,3-.2c-.26-3.86-1.44-19.89-3.2-19.89C181.7,330.22,177.67,343.62,176.15,348.87Z" style="fill:#263238"></path><path d="M166.85,339.51a21.2,21.2,0,0,0,4.38,6.08c3.73-5.73,9.74-15.28,8.6-15.8C179,329.42,172.32,334.87,166.85,339.51Z" style="fill:#263238"></path><path d="M164.27,331.06a30,30,0,0,0,1.2,5.05c6.12-3.47,12.4-7.25,12-7.92S170.77,329.25,164.27,331.06Z" style="fill:#263238"></path><path d="M164,323.61a33.23,33.23,0,0,0,0,4.68c6.48-.82,12.52-1.76,12.6-2.44S170.47,324.37,164,323.61Z" style="fill:#263238"></path><path d="M164.3,320.64c6.28,1.79,12.56,3.38,13.12,2.76s-6-4.93-11.73-8.54A32.63,32.63,0,0,0,164.3,320.64Z" style="fill:#263238"></path><path d="M167.49,310.66s0,0,0,0c4.64,4.81,11.17,11.28,12.31,10.81s-4-12.56-6.24-17.62A18.6,18.6,0,0,0,167.49,310.66Z" style="fill:#263238"></path><polygon points="675.1 307.96 646.4 307.96 644.22 296.51 672.91 296.51 675.1 307.96" style="fill:#fff"></polygon><path d="M69.38,157.21c138.31-2,279.87-2,418.19,0-138.32,2-279.88,2-418.19,0Z" style="opacity:0.1"></path><rect x="594.14" y="278.04" width="29.23" height="14.61" style="fill:#c7c7c7"></rect><rect x="594.14" y="278.04" width="14.61" height="14.61" style="fill:#1743E3"></rect><rect x="594.14" y="278.04" width="14.61" height="14.61" style="fill:#fff;opacity:0.5"></rect><path d="M606.21,285.35c-.19,6.61-9.81,6.66-10,0,.21-6.67,9.84-6.61,10,0Zm0,0a4.52,4.52,0,0,0-9,0,4.52,4.52,0,0,0,9,0Z" style="opacity:0.1"></path><path d="M620.82,285.35c-.19,6.61-9.81,6.66-10,0,.22-6.67,9.84-6.61,10,0Zm0,0a4.52,4.52,0,0,0-9,0,4.52,4.52,0,0,0,9,0Z" style="opacity:0.1"></path><rect x="676.9" y="278.04" width="14.61" height="14.61" style="fill:#c7c7c7"></rect><path d="M689,285.35c-.19,6.61-9.82,6.66-10,0,.22-6.67,9.85-6.61,10,0Zm0,0a4.52,4.52,0,0,0-9,0,4.52,4.52,0,0,0,9,0Z" style="opacity:0.1"></path><rect x="536.54" y="242.21" width="14.67" height="5.81" style="fill:#263238"></rect><polygon points="494.23 232.93 481.69 232.93 481.69 215.89 483.69 215.89 483.69 230.93 494.23 230.93 494.23 232.93" style="fill:#263238"></polygon><path d="M497.4,237.75h-4.54V226.12h4.54Zm-2.54-2h.54v-7.63h-.54Z" style="fill:#263238"></path><path d="M481.8,181h8a0,0,0,0,1,0,0v41.65a0,0,0,0,1,0,0h-8a6.22,6.22,0,0,1-6.22-6.22V187.24A6.22,6.22,0,0,1,481.8,181Z" style="fill:#1743E3"></path><path d="M481.8,181h8a0,0,0,0,1,0,0v41.65a0,0,0,0,1,0,0h-8a6.22,6.22,0,0,1-6.22-6.22V187.24A6.22,6.22,0,0,1,481.8,181Z" style="opacity:0.1"></path><path d="M594.54,159.59v1.62H567.73V131.45A28.16,28.16,0,0,1,594.54,159.59Z" style="opacity:0.30000000000000004"></path><path d="M533.49,131.42v29.79h-29.2v-8.46a21.33,21.33,0,0,1,21.32-21.33Z" style="opacity:0.30000000000000004"></path><path d="M567.73,131.45v29.76H533.49V131.42h32.89Z" style="opacity:0.1"></path><path d="M594.54,159.61v1.61h-.15A28.14,28.14,0,0,0,567.73,136l-1.35,0H525.61a21.32,21.32,0,0,0-21.32,21.33v-4.48a21.32,21.32,0,0,1,21.32-21.33h40.77q.68,0,1.35,0A28.16,28.16,0,0,1,594.54,159.61Z" style="opacity:0.1"></path><path d="M534.64,145.41c.13-.43.38-.49.54-.14.33.72.91,1.55,1.44,1.53a1.17,1.17,0,0,0,.94-.74,3.14,3.14,0,0,0,.32-1.42,2.46,2.46,0,0,0-.07-.64,2.14,2.14,0,0,0-.22-.59,2.46,2.46,0,0,0-1-.93h0a2.93,2.93,0,0,1-1-.78,3.82,3.82,0,0,1-.69-1.54,6.78,6.78,0,0,1-.18-1.63,6.62,6.62,0,0,1,.6-2.89c.36-.67.81-1,1.3-1,.72,0,1.26.93,1.64,1.58a2.28,2.28,0,0,1,.11,1.41c-.12.48-.36.62-.54.3-.38-.68-.75-1.27-1.21-1.27a1.06,1.06,0,0,0-.84.67,2.81,2.81,0,0,0-.28,1.25,2.23,2.23,0,0,0,0,.56,2.06,2.06,0,0,0,.2.51,2.23,2.23,0,0,0,.94.88h0a3,3,0,0,1,1,.83,4,4,0,0,1,.75,1.64,7.18,7.18,0,0,1,.18,1.69,6.88,6.88,0,0,1-.64,3.07c-.37.71-.86,1.13-1.39,1.13-.81,0-1.5-1.09-1.92-2A2.37,2.37,0,0,1,534.64,145.41Z" style="fill:#263238"></path><path d="M539.58,141.72c0-3.92,1.26-7.11,2.76-7.13.66,0,1.26.57,1.73,1.54a2.74,2.74,0,0,1,.08,1.59c-.15.5-.43.58-.6.22-.33-.72-.75-1.09-1.21-1.09s-1,.55-1.35,1.43a10,10,0,0,0-.55,3.44,9.89,9.89,0,0,0,.55,3.45c.35.88.83,1.43,1.35,1.43s.87-.38,1.21-1.09c.17-.34.45-.26.6.22a2.7,2.7,0,0,1-.08,1.58c-.47,1-1.07,1.55-1.73,1.55C540.84,148.86,539.59,145.67,539.58,141.72Z" style="fill:#263238"></path><path d="M545.61,147.77v-11.7c0-.61.18-1.09.41-1.09s.42.48.42,1.09v4.76h1.95v-4.76c0-.61.18-1.09.41-1.09s.42.48.42,1.09v11.7c0,.61-.18,1.09-.42,1.09s-.41-.48-.41-1.09V143h-1.95v4.76c0,.61-.18,1.09-.42,1.09S545.61,148.38,545.61,147.77Z" style="fill:#263238"></path><path d="M554.86,136.71a16.93,16.93,0,0,1,0,10c-.44,1.29-1.1,2.12-1.79,2.12s-1.39-.83-1.84-2.12a17.14,17.14,0,0,1,0-10c.45-1.31,1.12-2.12,1.84-2.12S554.42,135.4,554.86,136.71Zm-.1,5a10.85,10.85,0,0,0-.51-3.46c-.31-.9-.73-1.41-1.18-1.41s-.9.51-1.22,1.41a10.58,10.58,0,0,0-.51,3.46,10.38,10.38,0,0,0,.51,3.45c.32.89.74,1.43,1.22,1.43s.87-.54,1.18-1.43A10.65,10.65,0,0,0,554.76,141.72Z" style="fill:#263238"></path><path d="M561.18,136.71a17.14,17.14,0,0,1,0,10c-.45,1.29-1.11,2.12-1.8,2.12s-1.38-.83-1.84-2.12a17.36,17.36,0,0,1,0-10c.46-1.31,1.12-2.12,1.84-2.12S560.73,135.4,561.18,136.71Zm-.1,5a10.85,10.85,0,0,0-.51-3.46c-.32-.9-.74-1.41-1.19-1.41s-.9.51-1.22,1.41a10.85,10.85,0,0,0-.51,3.46,10.65,10.65,0,0,0,.51,3.45c.32.89.74,1.43,1.22,1.43s.87-.54,1.19-1.43A10.65,10.65,0,0,0,561.08,141.72Z" style="fill:#263238"></path><path d="M563.38,147.77v-11.7c0-.59.18-1.09.41-1.09s.43.5.43,1.09v10.59h2c.22,0,.41.5.41,1.11s-.19,1.09-.41,1.09h-2.46C563.56,148.86,563.38,148.36,563.38,147.77Z" style="fill:#263238"></path><path d="M543.71,159v-7.73c0-.4.19-.72.42-.72h1.07c.79,0,1.43,1.12,1.43,2.49a3.82,3.82,0,0,1-.28,1.5,3.61,3.61,0,0,1,.76,2.37c0,1.56-.73,2.81-1.62,2.81h-1.36C543.9,159.7,543.71,159.38,543.71,159Zm.84-4.9h.65c.33,0,.59-.48.59-1.06s-.26-1-.59-1h-.65Zm0,4.17h.94c.43,0,.78-.6.78-1.36s-.35-1.34-.78-1.35h-.94Z" style="fill:#263238"></path><path d="M550.38,159.7c-1.21,0-2.18-1.7-2.18-3.78v-4.67c0-.4.18-.72.42-.72s.42.32.42.72v4.67c0,1.28.6,2.33,1.34,2.33s1.35-1.05,1.35-2.33v-4.67c0-.4.19-.72.42-.72s.41.32.41.72v4.67C552.56,158,551.59,159.7,550.38,159.7Z" style="fill:#263238"></path><path d="M553.47,157.42c.13-.28.38-.32.55-.09a2.1,2.1,0,0,0,1.44,1,1.21,1.21,0,0,0,.94-.48,1.51,1.51,0,0,0,.33-1,1.09,1.09,0,0,0-.07-.42,1,1,0,0,0-.23-.39,2.22,2.22,0,0,0-1-.61h0a3,3,0,0,1-1-.52,2.26,2.26,0,0,1-.7-1,3.25,3.25,0,0,1-.17-1.07,3.11,3.11,0,0,1,.6-1.91,1.66,1.66,0,0,1,1.31-.7,2.42,2.42,0,0,1,1.64,1,1,1,0,0,1,.11.93c-.12.31-.36.41-.54.2-.38-.45-.75-.84-1.21-.84a1.09,1.09,0,0,0-.85.44,1.35,1.35,0,0,0-.29.83,1,1,0,0,0,.06.37,1,1,0,0,0,.2.34,2.15,2.15,0,0,0,.94.57h0a3.24,3.24,0,0,1,1,.55,2.57,2.57,0,0,1,.76,1.09,3.44,3.44,0,0,1,.18,1.11,3.32,3.32,0,0,1-.65,2,1.76,1.76,0,0,1-1.4.75,2.75,2.75,0,0,1-1.93-1.31A1.08,1.08,0,0,1,553.47,157.42Z" style="fill:#263238"></path><path d="M518,152.49c0,3.18-1.78,5.76-4,5.76s-4-2.58-4-5.76,1.79-5.76,4-5.76S518,149.31,518,152.49Z" style="fill:#1743E3"></path><path d="M516.46,152.49c0,1.65-.5,4-2.49,4.25-3.44-.34-3.66-6.17-1.35-8s4,1.77,3.84,3.77Zm0,0c-.18-5-4.56-5.2-4.61,0s4.43,5,4.61,0Z" style="fill:#fff;opacity:0.30000000000000004"></path><path d="M590.33,152.49c0,3.18-1.79,5.76-4,5.76s-4-2.58-4-5.76,1.78-5.76,4-5.76S590.33,149.31,590.33,152.49Z" style="fill:#1743E3"></path><path d="M588.83,152.49c0,1.65-.5,4-2.49,4.25-3-.29-3.42-4.74-2.24-6.92,2.24-3.63,4.9-.34,4.73,2.67Zm0,0c-.18-5-4.56-5.2-4.6,0s4.43,5,4.6,0Z" style="fill:#fff;opacity:0.30000000000000004"></path><path d="M529.93,151.28c0,3.85-2.16,7-4.82,7s-4.82-3.12-4.82-7,2.16-7,4.82-7S529.93,147.44,529.93,151.28Z" style="fill:#1743E3"></path><path d="M528.12,151.28c-.06,6.84-6.2,6.66-6.4,0,.2-6.65,6.34-6.83,6.4,0Zm0,0c-.2-6.16-5.58-6.32-5.65,0s5.45,6.16,5.65,0Z" style="fill:#fff;opacity:0.30000000000000004"></path><path d="M580.33,151.28c0,3.85-2.16,7-4.82,7s-4.82-3.12-4.82-7,2.16-7,4.82-7S580.33,147.44,580.33,151.28Z" style="fill:#1743E3"></path><path d="M578.52,151.28c-.07,6.84-6.2,6.66-6.4,0,.2-6.65,6.34-6.83,6.4,0Zm0,0c-.2-6.16-5.58-6.32-5.65,0s5.45,6.16,5.65,0Z" style="fill:#fff;opacity:0.30000000000000004"></path></g><g id="freepik--character-2--inject-70"><path d="M245.66,228.16a14,14,0,0,0,3.59,3.11,21.09,21.09,0,0,0,14.17,2.41,7.9,7.9,0,0,0,2.16-.71,16.63,16.63,0,0,0,4-2.94,12.12,12.12,0,0,0,3.32-12,8.22,8.22,0,0,0-4.86-5.82h0a7.18,7.18,0,0,0-1.61-.41,7.48,7.48,0,0,0-.84-.08,11,11,0,0,0-7.51,2.75c-3.18,2.6-5.37,6.27-7.66,7.44-2.52,1.28-5.06,0-6.05,0C241.62,221.88,244.26,226.41,245.66,228.16Z" style="fill:#263238"></path><path d="M248.85,231.92c4.94,2.72,10.22,4.64,15.58,1.92A19.12,19.12,0,0,0,269.6,230a12.17,12.17,0,0,0,3.6-8.18c0-.19-.3-.23-.33,0-.71,5.19-4.05,8.9-8.5,11.4-.32.17-.63.33-.95.47-4.95,2.26-9.76.47-14.52-1.84C248.84,231.82,248.8,231.89,248.85,231.92Z" style="fill:#263238"></path><path d="M245.83,221.36c3.76,1.18,6.67-2.11,9-4.55a24.28,24.28,0,0,1,3.11-2.8,18,18,0,0,1,3.06-1.87,7.84,7.84,0,0,1,5.47-.31,7.28,7.28,0,0,1,2.68,1.42s.06,0,0,0a5.39,5.39,0,0,0-1.1-1h0a8.94,8.94,0,0,0-4.21-1.33c-2.11-.13-4.06,1-5.73,2.17l-.47.35a39.43,39.43,0,0,0-4.84,4.83c-1.84,2-4.13,3.61-7,3C245.8,221.27,245.78,221.35,245.83,221.36Z" style="fill:#263238"></path><path d="M274,224.2c-1,.27-3.17-1.93-4-4.37-.9-2.76-.1-6.06.36-6.46s2.61.81,2.61.81-.47,3.37.32,4.85a15.07,15.07,0,0,0,2.49,3.1Z" style="fill:#1743E3"></path><path d="M284.43,242.77a13.63,13.63,0,0,0,4.73.46A21.1,21.1,0,0,0,302.11,237a8.16,8.16,0,0,0,1.34-1.83,16.79,16.79,0,0,0,1.57-4.72,12.07,12.07,0,0,0-4.24-11.67,8.19,8.19,0,0,0-7.33-1.93h0a7.67,7.67,0,0,0-1.54.6c-.25.13-.48.27-.72.42a11,11,0,0,0-4.54,6.6c-1.08,4-.73,8.22-1.92,10.5-1.31,2.51-4.12,2.94-4.94,3.5C277.5,240,282.28,242.17,284.43,242.77Z" style="fill:#263238"></path><path d="M289.21,244c5.6-.65,11-2.14,13.81-7.47a18.94,18.94,0,0,0,2-6.1,12.21,12.21,0,0,0-1.81-8.76c-.1-.15-.38,0-.29.16,2.43,4.64,1.86,9.6-.32,14.22-.16.32-.32.64-.49.93-2.73,4.72-7.68,6.05-12.91,6.93C289.15,243.91,289.15,244,289.21,244Z" style="fill:#263238"></path><path d="M280.63,237.15c3.75-1.23,4.21-5.6,4.67-8.92a24.77,24.77,0,0,1,.9-4.08,18.15,18.15,0,0,1,1.42-3.3,7.83,7.83,0,0,1,4.27-3.43,7.24,7.24,0,0,1,3-.39,0,0,0,0,0,0-.06,5.49,5.49,0,0,0-1.46-.15h0a8.88,8.88,0,0,0-4.19,1.36c-1.8,1.12-2.72,3.18-3.41,5.1-.07.18-.13.36-.19.55a40.2,40.2,0,0,0-1.13,6.74c-.36,2.68-1.27,5.34-3.91,6.49A0,0,0,0,0,280.63,237.15Z" style="fill:#263238"></path><path d="M339.68,471.05c-2,.64-59.09,0-61.26-1.4-.82-.52-1.21-8.84-1.4-18.91,0-2.17,1.74-35.26,1.74-35.26l34.38.4.69,35.16s21.75,10,24,11.82S341.69,470.4,339.68,471.05Z" style="fill:#eb9481"></path><path d="M278.42,469.66c2.17,1.39,59.26,2,61.27,1.39s.29-6.41-1.9-8.2c-1.22-1-8.41-4.49-14.6-7.43h0c6.51,3.22,12.42,8.69-16.29,5.64-7.4-.77-17.1-2.13-29.69-4.23C277.4,464,277.77,469.23,278.42,469.66Z" style="fill:#263238"></path><path d="M323.15,455.43s-10-2.86-16.29,5.64Z" style="fill:#263238"></path><path d="M275.45,448.84l38.3.46s.66-71.07.25-73.8c-3.14-21-13.84-89.07-13.84-89.07l-39,.22S277,369.54,277,374.75C277.06,394.59,275.45,448.84,275.45,448.84Z" style="fill:#455a64"></path><path d="M277,374.75c0,1.61,0,3.43,0,5.45l22.13-93.76-37.93.21S277,369.54,277,374.75Z" style="opacity:0.1"></path><path d="M216.93,467.13c-1.66-1.28-33.41-48.74-33.48-51.31,0-1,6.61-6,14.81-11.85,1.77-1.27,28.06-21.5,28.06-21.5l21.59,29.25L218.82,434.5s4,23.61,3.8,26.44S218.6,468.42,216.93,467.13Z" style="fill:#eb9481"></path><path d="M183.45,415.82c.07,2.57,31.82,50,33.49,51.32s5.45-3.38,5.68-6.2c.13-1.56-1.05-9.48-2.12-16.25l0,0c1,7.19-.15,15.17-13.87-10.25-3.54-6.54-7.9-15.3-13.29-26.88C187.57,411.75,183.44,415,183.45,415.82Z" style="fill:#263238"></path><path d="M220.47,444.67s-3.28-9.84-13.86-10.25Z" style="fill:#263238"></path><path d="M199.88,401.93l23.88,32.66s44.83-33.64,49.11-47.23c5.5-17.49,12.43-71.56,12.43-71.56l6.66-1.29c2.29-2.31,5.88-28.08,5.88-28.08l-46.38.3S243,306.43,247,324.37c0,0-6.14,34-8,44.77C237.8,375.48,199.88,401.93,199.88,401.93Z" style="fill:#455a64"></path><path d="M275.47,318.2A59.25,59.25,0,0,1,285.62,315c3.6-.79,7.25-1.2,10.89-1.72.17,0,.24.24.06.28-3.53.68-7,1.67-10.48,2.54s-7,1.64-10.54,2.32C275.43,318.43,275.35,318.25,275.47,318.2Z" style="fill:#263238"></path><path d="M287,299c.21-3.69.53-7.4.93-11.07a.14.14,0,0,1,.27,0c.08,3.31,0,6.64,0,10,0,1.65-.09,3.3-.15,4.95-.05,1.1-.45,4.4,1.32,4.34s2-2.19,2.23-3.44c.33-1.71.59-3.43.79-5.16.4-3.36.55-6.75.77-10.13,0-.15.25-.19.27,0a47.27,47.27,0,0,1,.09,9.44c-.13,1.59-.3,3.18-.53,4.76a12.77,12.77,0,0,1-.89,3.86,3.59,3.59,0,0,1-2.55,1.9.79.79,0,0,1,0,.13c0,.26,0,.53,0,.79,0,.59,0,1.18-.06,1.77s-.09,1.13-.13,1.7a8.44,8.44,0,0,1-.26,1.66.14.14,0,0,1-.27,0,7.29,7.29,0,0,1-.18-1.61c0-.59,0-1.18-.06-1.78s0-1.13,0-1.7c0-.28,0-.57,0-.85a.56.56,0,0,1,0-.12,2.08,2.08,0,0,1-1.36-1,7.2,7.2,0,0,1-.56-3.65C286.79,302.1,286.91,300.54,287,299Z" style="fill:#263238"></path><path d="M253.74,304.86a24.66,24.66,0,0,0,3,.55,10.8,10.8,0,0,0,3.2-.3,12.4,12.4,0,0,0,5.81-3.22,17.66,17.66,0,0,0,3.82-5.94,31.8,31.8,0,0,0,1.14-3.28c.37-1.27.8-2.54,1.1-3.83a.14.14,0,0,1,.28.05c-.09.78-.05,1.56-.15,2.34-.08.62-.21,1.25-.34,1.87a25.09,25.09,0,0,1-1.13,3.89,17.87,17.87,0,0,1-4.13,6.38,11.8,11.8,0,0,1-6.34,3.15c-2,.3-4.82.08-6.3-1.49C253.61,305,253.66,304.85,253.74,304.86Z" style="fill:#263238"></path><path d="M249.94,289.83l53-.26c.19-.15-8.52-38.4-14.43-49.8-1.51-2.9-8.91-7-15.05-2.46C259.58,247.52,249.94,289.83,249.94,289.83Z" style="fill:#1743E3"></path><g style="opacity:0.7000000000000001"><path d="M249.94,289.83l53-.26c.19-.15-8.52-38.4-14.43-49.8-1.51-2.9-8.91-7-15.05-2.46C259.58,247.52,249.94,289.83,249.94,289.83Z" style="fill:#fff"></path></g><path d="M250.17,279.51c.59-.76,25.1-21.76,27-35.69,1.23-9.14-9.16-2.89-9.16-2.89l-.55-2.78s6.4-3.11,9.95-1.37c13,6.37-15.24,38.22-28.31,48.2Z" style="fill:#263238"></path><path d="M247.91,297.24c2.67-2,1.13-14.73,6.47-28s16.71-29.37,16-30.48c-1.07-1.66-11-2.59-15,0-5,3.27-14.17,15.13-14.17,15.13s-5.1,2.32-6.58,4.71c-.39.63-1.35,2.77-2.55,5.6-.33.79-3.55,2.62-3.91,3.5-2.11,5.07-4.2,9.74-5.71,13.82-.87,2.36,1,4.59,1.09,4.84.19,1,1.45,10.62,2.75,11.86S237.07,305.32,247.91,297.24Z" style="fill:#a6a6a6"></path><g style="opacity:0.2"><path d="M244.93,291.62l.89-3.39c.52-2,1.12-3.94,1.56-5.93.05-.23.09-.42-.17-.57a6.25,6.25,0,0,0-1.64-.4q-2-.46-4.11-.84c-2.85-.52-6.07-1.07-9-1.35-.27,0-.35.3-.08.33A132.35,132.35,0,0,1,246,281.79c.24.06.8.13.92.33a1.42,1.42,0,0,1-.12.44c-.12.44-.23.88-.35,1.31l-.72,2.63c-.47,1.76-.25.87-.72,2.62-.22.8-.44,1.61-.65,2.41-.12.44-.24.88-.35,1.32-.06.22-.11.44-.18.66a1,1,0,0,1-.87.76c-.92.26-1.94.38-2.89.56l-3.23.61a7.85,7.85,0,0,1-1.72.3c-.6,0-1.13-.68-1.5-1l-3.46-3a4.59,4.59,0,0,1-.87-1.07c-.21-.43,2.3-9.58,3.17-11.43,0-.08-.22-.16-.26-.07a102.76,102.76,0,0,0-3.68,11.29c-.05.77.66,1.25,1.27,1.78l2.61,2.23c.45.39.89.78,1.35,1.16a2.07,2.07,0,0,0,1.11.59,4.32,4.32,0,0,0,1.24-.17l1.88-.37,3.62-.7c.8-.16,2.07-.21,2.53-.84a3,3,0,0,0,.35-1C244.65,292.64,244.79,292.13,244.93,291.62Z"></path><path d="M246.68,282.8c-2.6.77-5.22,1.52-7.88,2.15-.35.08-.69.17-1,.24a1.27,1.27,0,0,1-1.38-.39c-.43-.39-.85-.8-1.28-1.2-1-.92-2-1.82-3-2.73-.07-.07-.22,0-.14.08,1,1.08,2,2.15,3.1,3.21.72.72,1.36,1.74,2.67,1.46,1.5-.31,3-.78,4.41-1.21s3.09-1,4.58-1.53A0,0,0,1,0,246.68,282.8Z"></path><path d="M238.05,284.06a.56.56,0,0,0-.25-.47.93.93,0,0,0-.73,0c-.1,0,0,.17.06.13a.63.63,0,0,1,.3,0,.26.26,0,0,1,.12.05l0,0a.39.39,0,0,1,.06.11l0,.05s0,0,0,0a1,1,0,0,1,0,.25.39.39,0,0,1-.31.31.26.26,0,0,1-.27-.06.46.46,0,0,1-.09-.27s-.05,0-.05,0a.39.39,0,0,0,.18.43.64.64,0,0,0,.6-.06A.57.57,0,0,0,238.05,284.06Z"></path></g><g style="opacity:0.2"><path d="M258.57,255.89c.75-1.41.51-1,1.26-2.39s1.52-2.76,2.2-4.17c.08-.16.14-.3,0-.47a4.78,4.78,0,0,0-1.15-.64c-1-.52-1.94-1-2.93-1.49-2-1-4.35-2.06-6.46-2.87-.2-.08-.32.16-.12.24a101,101,0,0,1,9.77,4.57c.17.09.58.26.64.43a1.14,1.14,0,0,1-.17.31c-.16.31-.33.62-.5.93l-1,1.85c-.66,1.23-.34.6-1,1.83l-.9,1.7-.49.92c-.09.16-.16.32-.25.47a.75.75,0,0,1-.78.4c-.74,0-1.52-.12-2.26-.18l-2.52-.2a6.08,6.08,0,0,1-1.34-.12c-.44-.15-.72-.75-.94-1.07l-2.06-3a3.41,3.41,0,0,1-.46-1c-.09-.37,3.38-6.8,4.35-8,.05,0-.13-.17-.18-.11a77.86,77.86,0,0,0-4.71,7.81c-.17.57.27,1.08.63,1.61l1.56,2.23c.27.39.53.77.81,1.16a1.64,1.64,0,0,0,.73.67,3.11,3.11,0,0,0,.95.13l1.47.11,2.83.21c.62.05,1.58.27,2-.11A2.16,2.16,0,0,0,258,257Z"></path><path d="M261.42,249.56c-2.08.05-4.16.08-6.27,0-.27,0-.54,0-.81,0a1,1,0,0,1-1-.58c-.26-.39-.5-.79-.75-1.18l-1.77-2.69c0-.06-.16,0-.12,0,.57,1,1.15,2.06,1.75,3.08.41.7.72,1.6,1.75,1.66s2.34,0,3.5,0,2.47-.11,3.69-.22A0,0,0,0,0,261.42,249.56Z"></path><path d="M254.75,248.74a.44.44,0,0,0-.11-.4.65.65,0,0,0-.53-.16c-.09,0-.07.12,0,.11a.42.42,0,0,1,.22,0,.15.15,0,0,1,.09.06.13.13,0,0,1,0,.05.29.29,0,0,1,0,.09s0,0,0,0v0a.65.65,0,0,1,0,.19.27.27,0,0,1-.28.18.2.2,0,0,1-.19-.11.34.34,0,0,1,0-.22,0,0,0,0,0,0,0,.31.31,0,0,0,.06.36.51.51,0,0,0,.46.08A.42.42,0,0,0,254.75,248.74Z"></path></g><path d="M232,264.65s-2.87,8.37-3,9.22-3.22,10.13-4,10.65a4.56,4.56,0,0,0-1.07,1" style="opacity:0.2"></path><path d="M241.25,253.89s-5,10.56-5.36,11.29-4.6,10.59-5.2,11.42a18.78,18.78,0,0,1-2.41,2.83" style="opacity:0.2"></path><rect x="256.79" y="270.84" width="46.28" height="6.65" transform="translate(636.17 111.03) rotate(110.99)" style="fill:#1743E3"></rect><rect x="262.99" y="273.22" width="46.28" height="6.65" transform="translate(646.82 108.47) rotate(110.99)" style="fill:#263238"></rect><rect x="272.01" y="285.85" width="4.31" height="6.65" transform="translate(642.37 136.79) rotate(110.99)" style="fill:#1743E3"></rect><rect x="275.42" y="280.42" width="1.67" height="6.65" transform="translate(640.13 127.49) rotate(110.99)" style="fill:#1743E3"></rect><rect x="263.88" y="271.91" width="49.73" height="7.99" transform="translate(649.77 105.15) rotate(110.99)" style="fill:#c7c7c7"></rect><rect x="293.26" y="253.84" width="4.84" height="7.99" transform="translate(642.32 74.14) rotate(110.99)" style="fill:#1743E3"></rect><rect x="292.8" y="258.72" width="2.02" height="7.99" transform="translate(644.33 82.51) rotate(110.99)" style="fill:#1743E3"></rect><rect x="280.45" y="287.22" width="4.84" height="7.99" transform="matrix(-0.36, 0.93, -0.93, -0.36, 656.09, 131.42)" style="fill:#1743E3"></rect><rect x="291.97" y="255.17" width="15.1" height="49.78" transform="translate(120.2 -88.7) rotate(20.99)" style="fill:#ebebeb"></rect><rect x="274.14" y="277.06" width="45.91" height="6.64" transform="translate(665.3 103.43) rotate(110.99)" style="fill:#455a64"></rect><rect x="283.08" y="277.55" width="45.91" height="12.51" transform="translate(680.64 99.74) rotate(110.99)" style="fill:#37474f"></rect><rect x="274.14" y="277.75" width="45.91" height="5.26" transform="matrix(-0.36, 0.93, -0.93, -0.36, 665.3, 103.43)" style="fill:#fff"></rect><path d="M305.7,262.27c-4.65,13.05-10.11,27.28-15.38,40.09,4.65-13,10.12-27.27,15.38-40.09Z" style="fill:#dbdbdb"></path><path d="M304.74,261.91c-4.66,13-10.11,27.27-15.38,40.09,4.65-13.05,10.11-27.28,15.38-40.09Z" style="fill:#dbdbdb"></path><path d="M303.78,261.54c-4.66,13-10.12,27.27-15.39,40.09,4.66-13.05,10.12-27.28,15.39-40.09Z" style="fill:#dbdbdb"></path><path d="M302.81,261.17c-4.65,13-10.11,27.27-15.38,40.09,4.65-13.05,10.12-27.28,15.38-40.09Z" style="fill:#dbdbdb"></path><path d="M264.74,244c-16.89,18.31-30.72,39.58-23.39,47,4.88,4.95,23.25-12.31,23.51-12.67.89-1.25,4.6-9.74,10.38-26.32C280.92,235.7,272.29,235.77,264.74,244Z" style="fill:#1743E3"></path><g style="opacity:0.7000000000000001"><path d="M264.74,244c-16.89,18.31-30.72,39.58-23.39,47,4.88,4.95,23.25-12.31,23.51-12.67.89-1.25,4.6-9.74,10.38-26.32C280.92,235.7,272.29,235.77,264.74,244Z" style="fill:#fff"></path></g><path d="M273.33,258.84c-.5.94-1,1.89-1.45,2.85l.24-.75q1-3,1.9-6.08a0,0,0,1,0-.07,0c-1.34,3.52-8.59,21.32-9.55,23.86a0,0,0,0,0,.07,0c1.66-1.93,5.81-12.38,6.74-15a48.65,48.65,0,0,0,2.23-4.81C273.47,258.83,273.36,258.78,273.33,258.84Z" style="fill:#263238"></path><path d="M241,281.71c-.91,2.62.22,9.5,4.49,11.51,10.42,4.91,28.69,6,41.54,6.8,3.46.21,3.56-31.17-.13-31C265.8,270.18,244.45,271.61,241,281.71Z" style="fill:#eb9481"></path><path d="M319.23,279.53c-1.18,3.09-3,2-3,2a6.12,6.12,0,0,1,1.13,4c-.3,2.5-4.35,3.12-4.35,3.12a7.6,7.6,0,0,1,.52,4.41c-.53,2.36-4.53,3.58-4.53,3.58a6.56,6.56,0,0,1-2,4.16c-3.16,2.82-22.94-.21-28.08-1.62l4.56-29.74s20-3.42,24.52-1.45C311.83,269.68,321,274.8,319.23,279.53Z" style="fill:#eb9481"></path><path d="M316.25,281.45c-3.59-2.73-7.82-4.59-11.92-6.34a.08.08,0,0,0-.06.14c4.1,1.7,7.85,4.53,11.87,6.38A.11.11,0,0,0,316.25,281.45Z" style="fill:#263238"></path><path d="M313.07,288.33a11.77,11.77,0,0,0-2.8-1.26q-1.53-.57-3.09-1.08c-2.06-.69-4.15-1.33-6.25-1.9-.09,0-.15.11-.06.14,2.06.69,4.11,1.41,6.14,2.18,1,.39,2,.78,3,1.19a14.42,14.42,0,0,0,2.9,1A.15.15,0,0,0,313.07,288.33Z" style="fill:#263238"></path><path d="M309,296.64a7.93,7.93,0,0,0-2.59-1l-2.84-.9c-1.89-.61-3.78-1.22-5.65-1.89-.09,0-.15.11-.06.14,1.9.7,3.78,1.42,5.68,2.09l2.81,1a7.78,7.78,0,0,0,2.62.66A.05.05,0,0,0,309,296.64Z" style="fill:#263238"></path><path d="M285,268.23l-5.23,33.24s-22.56-1.8-35.11-7.73c-5.71-2.7-6-10.29-4.17-13.17C247.59,269.28,285,268.23,285,268.23Z" style="fill:#1743E3"></path><path d="M285,268.23l-5.23,33.24s-22.56-1.8-35.11-7.73c-5.71-2.7-6-10.29-4.17-13.17C247.59,269.28,285,268.23,285,268.23Z" style="fill:#fff;opacity:0.7000000000000001"></path><path d="M277.45,270.84a260.51,260.51,0,0,0-4.57,26.29c0,.05.07.07.08,0,2.43-9.85,4.64-25.34,4.66-26.29C277.63,270.75,277.47,270.75,277.45,270.84Z" style="fill:#263238"></path><path d="M285.19,269.22c0-.41.15-1.5-.05-1.49-.69,0-1.38,0-2.08,0l-2,.13c-1.35.09-2.69.21-4,.35-2.66.27-5.32.62-8,1s-5.27.92-7.89,1.49-5.21,1.19-7.76,2l-.49.14a14.84,14.84,0,0,0-2.83-.09,32.43,32.43,0,0,0-3.27.4,0,0,0,1,0,0,.07,22.32,22.32,0,0,1,3.27-.16l2,0c-2.44.74-4.87,1.51-7.25,2.42,0,0,0,.08,0,.07,2.6-.74,5.19-1.51,7.81-2.15s5.19-1.27,7.81-1.82c5.21-1.09,10.46-2,15.75-2.56,1.48-.16,3-.31,4.44-.43.75-.06,1.51-.13,2.27-.18l1.81-.16v.84C284.77,269.53,285.19,269.58,285.19,269.22Z" style="fill:#263238"></path><path d="M278.21,236.58c.24,1.63,2.88,10.13,7.51,10.86,1.51.24,3.17-7.95,3.17-7.95l.26-.58,3.64-8.07-9.89-9.56S278,234.81,278.21,236.58Z" style="fill:#eb9481"></path><path d="M281.35,225.41a30.54,30.54,0,0,0,.32,3.18c1.09,7.14,4.72,9.75,7.31,10.71l.17-.39,3.64-8.07-9.89-9.56S282.22,223,281.35,225.41Z" style="fill:#263238"></path><path d="M270.49,207.53c-8.35,17.36,1.1,24.33,4.85,26.12,3.4,1.63,15.19,6.76,25.29-9.65s4.68-25.78-2.9-29.92S278.85,190.16,270.49,207.53Z" style="fill:#eb9481"></path><path d="M299,224.12c-1.89-1-4.56-8.61-.51-18.08,0,0-3.05,8.76-3,10.28s-1.48-4.29,1.68-12a44.78,44.78,0,0,1-9.44,1.14c-3.8-.11-6.49-.89-6.63-1.26s6-1,8.17-2c0,0-11.77,2.16-16.31.53-.53-.19,4.13-10,12.9-11.39s17.06,5.3,18.7,9.39c0,0,3.18,2,4.62,8.68S301.07,225.19,299,224.12Z" style="fill:#263238"></path><path d="M297.46,203.28c.13-.19.45,0,.33.18a26.91,26.91,0,0,0-3.13,10.71c0,.05-.1.05-.1,0C294.63,210.21,295.2,206.61,297.46,203.28Z" style="fill:#263238"></path><path d="M282.06,205.27c5.49,1.25,10.61,1.19,15.59-1.67.11-.06.22.08.12.16-4.49,3.46-10.57,3.38-15.77,1.71C281.89,205.44,281.94,205.24,282.06,205.27Z" style="fill:#263238"></path><g style="opacity:0.1"><path d="M291.18,224.47a.31.31,0,0,0,.21.36.3.3,0,0,0,.36-.21.28.28,0,0,0-.21-.36A.29.29,0,0,0,291.18,224.47Z"></path><path d="M286.56,222.4a.29.29,0,1,0,.36-.21A.29.29,0,0,0,286.56,222.4Z"></path><path d="M283.28,221.43a.29.29,0,1,0,.36-.21A.29.29,0,0,0,283.28,221.43Z"></path><path d="M281.26,223.38a.3.3,0,0,0,.21.36.31.31,0,0,0,.37-.21.3.3,0,0,0-.21-.36A.31.31,0,0,0,281.26,223.38Z"></path><path d="M288.16,225.84a.29.29,0,0,0,.21.36.28.28,0,0,0,.36-.21.29.29,0,1,0-.57-.15Z"></path><path d="M284.37,225.15a.29.29,0,1,0,.36-.21A.29.29,0,0,0,284.37,225.15Z"></path><path d="M289.57,221.66a.3.3,0,0,0,.21.36.29.29,0,1,0-.21-.36Z"></path><path d="M272.78,218.33a.29.29,0,0,0,.21.36.28.28,0,0,0,.36-.21.3.3,0,0,0-.21-.36A.3.3,0,0,0,272.78,218.33Z"></path><path d="M269.05,215.81a.28.28,0,0,0,.21.36.3.3,0,0,0,.36-.21.3.3,0,0,0-.21-.36A.29.29,0,0,0,269.05,215.81Z"></path><path d="M268.35,214a.29.29,0,1,0,.36-.21A.29.29,0,0,0,268.35,214Z"></path><path d="M269.54,218.43a.3.3,0,0,0,.21.36.29.29,0,0,0,.36-.21.28.28,0,0,0-.21-.36A.3.3,0,0,0,269.54,218.43Z"></path><path d="M267.68,217.31a.29.29,0,0,0,.21.36.3.3,0,0,0,.36-.21.29.29,0,0,0-.57-.15Z"></path><path d="M272.06,216a.29.29,0,0,0,.21.36.28.28,0,0,0,.36-.21.29.29,0,0,0-.57-.15Z"></path></g><path d="M273.6,210.52c.45.06.88,0,1.34.06a2.22,2.22,0,0,0,1.37-.2.71.71,0,0,0,.21-.82,1.7,1.7,0,0,0-1.53-.8,2.53,2.53,0,0,0-1.75.46A.74.74,0,0,0,273.6,210.52Z" style="fill:#263238"></path><path d="M285.22,215.6a10.54,10.54,0,0,1-1-.86,2.21,2.21,0,0,1-.88-1.08.71.71,0,0,1,.4-.74,1.69,1.69,0,0,1,1.67.45,2.5,2.5,0,0,1,1,1.52A.73.73,0,0,1,285.22,215.6Z" style="fill:#263238"></path><path d="M283.29,216.4c2,.68.51,4.66-1.36,4S281.6,215.83,283.29,216.4Z" style="fill:#263238"></path><path d="M284,216.91c.26.35.45.88.86,1.08s1-.05,1.46-.33c0,0,.07,0,.05.08-.28.76-.87,1.43-1.73,1.24s-1.06-1.06-1-1.9C283.68,216.93,283.89,216.76,284,216.91Z" style="fill:#263238"></path><path d="M274.57,212.61c-1.93-.89-3.56,3-1.77,3.86S276.19,213.35,274.57,212.61Z" style="fill:#263238"></path><path d="M273.64,212.52c-.39.08-.86.33-1.24.2s-.58-.7-.68-1.22c0-.06-.06,0-.08,0-.34.75-.41,1.63.25,2.07s1.35,0,1.84-.71C273.82,212.75,273.8,212.49,273.64,212.52Z" style="fill:#263238"></path><path d="M278.51,227a2,2,0,0,1-1.29.39,3.47,3.47,0,0,1-1.24-.76,0,0,0,0,0-.08.05,1.8,1.8,0,0,0,1.37,1.2,1.41,1.41,0,0,0,1.35-.79C278.66,227,278.57,227,278.51,227Z" style="fill:#263238"></path><path d="M275.13,220.56s-1,1.74-1.31,2.6c0,.08.16.2.45.33,0,0,0,0,0,0a4.43,4.43,0,0,0,4.59,0,.1.1,0,0,0-.08-.17,6.62,6.62,0,0,1-4.17-.4c0-.26,1.77-2.94,1.63-3-.62-.13-1.73-.27-2.14-.33.61-1.14,2.48-4.29,3.58-6.36.07-.13-.12-.26-.2-.15a63.33,63.33,0,0,0-4.56,6.9C272.85,220.25,274.72,220.58,275.13,220.56Z" style="fill:#263238"></path><path d="M275.1,223.53a4.41,4.41,0,0,0,1.06,2,2,2,0,0,0,1.08.57c.9.14,1.25-.58,1.38-1.28a4.84,4.84,0,0,0,.07-1.12A5.78,5.78,0,0,1,275.1,223.53Z" style="fill:#263238"></path><path d="M276.16,225.51a2,2,0,0,0,1.08.57c.9.14,1.25-.58,1.38-1.28A2.07,2.07,0,0,0,276.16,225.51Z" style="fill:#ff9abb"></path><path d="M281.41,224.2a6.78,6.78,0,0,1-2.31-9.3h0a6.77,6.77,0,1,1,3.85,10A6.58,6.58,0,0,1,281.41,224.2Zm-1.54-8.83a5.87,5.87,0,1,0,8.05-2,5.25,5.25,0,0,0-1.33-.59A5.87,5.87,0,0,0,279.87,215.37Z" style="fill:#dbdbdb"></path><path d="M268.87,218.64c-2.55-1.11-3.42-4.79-1.93-8.22a8,8,0,0,1,3.19-3.77,4.21,4.21,0,0,1,6.63,2.87,8.08,8.08,0,0,1-.57,4.91c-1.41,3.24-4.42,5.11-6.91,4.36A3.39,3.39,0,0,1,268.87,218.64Zm1.72-11.22a7.26,7.26,0,0,0-2.82,3.36c-1.29,3-.63,6.12,1.46,7s4.84-.77,6.13-3.74a7.2,7.2,0,0,0,.52-4.35,3.64,3.64,0,0,0-2-2.68l-.33-.11A3.72,3.72,0,0,0,270.59,207.42Z" style="fill:#dbdbdb"></path><path d="M278.93,215.69l.69-.35c-.51-1-2-2.7-3.83-1.89l.3.7C277.77,213.42,278.89,215.59,278.93,215.69Z" style="fill:#dbdbdb"></path><path d="M303.63,228l.76,0c0-.36-.28-3.5-1.73-4.43s-11.13-4.06-11.55-4.2l-.23.73c2.8.91,10.31,3.44,11.36,4.11S303.57,227.15,303.63,228Z" style="fill:#dbdbdb"></path><path d="M297.23,224s6.07-4.14,8.09-1.77-4,9.41-7.45,9.39a3.26,3.26,0,0,1-3.46-3.19Z" style="fill:#eb9481"></path><path d="M303.53,224.22a0,0,0,0,1,0,.08c-2.42.06-4.27,1.59-5.81,3.31a1.8,1.8,0,0,1,2.69.5c0,.06,0,.12-.1.09a2,2,0,0,0-2.31-.13,10,10,0,0,0-1.62,1.29c-.17.16-.47-.07-.31-.26l0,0C297.05,226.36,300.56,223.4,303.53,224.22Z" style="fill:#263238"></path></g><g id="freepik--character-1--inject-70"><path d="M184.65,469c-2.07-.26-53.21-25-54.57-27.18-.51-.82,2.65-8.48,6.74-17.62.89-2,1.81-4,2.76-6.07,6.15-13.38,13-27.44,13-27.44l34.26,16.45-13.93,27-3.06,5.93s15.35,18.23,16.58,20.78S186.73,469.28,184.65,469Z" style="fill:#ffc4c0"></path><path d="M184.65,469c-2.07-.26-53.21-25-54.57-27.18-.62-1,4.18-12.1,9.5-23.69l33.32,16-3.06,5.93s15.35,18.23,16.58,20.78S186.73,469.28,184.65,469Z" style="fill:#fff"></path><path d="M184.65,469c-2.07-.26-53.21-25-54.57-27.18-.51-.82,2.65-8.48,6.74-17.62l33,15.85s15.35,18.23,16.58,20.78S186.73,469.28,184.65,469Z" style="fill:#1743E3"></path><path d="M184.91,466.61c-8.47-4.35-43-21.13-51.75-24.79-.07,0-.1,0,0,.05,8.3,4.5,43,21,51.71,24.88C185,466.83,185.09,466.7,184.91,466.61Z" style="fill:#263238"></path><path d="M184,457.4a7.65,7.65,0,0,0-6.14-.38,7.4,7.4,0,0,0-4.13,3.65c0,.05.07.1.1.05A8.85,8.85,0,0,1,184,457.51.06.06,0,0,0,184,457.4Z" style="fill:#263238"></path><path d="M172.76,442.52c-3.41-1.7-8-2.42-11.47-.64-.13.07,0,.26.1.25a52.8,52.8,0,0,1,11.22.84A.24.24,0,0,0,172.76,442.52Z" style="fill:#263238"></path><path d="M174.9,444.84c-3.4-1.71-8-2.42-11.46-.65-.13.07,0,.26.1.26a52.15,52.15,0,0,1,11.22.84A.24.24,0,0,0,174.9,444.84Z" style="fill:#263238"></path><path d="M177.05,447.15c-3.4-1.71-8-2.42-11.46-.65-.13.07,0,.26.09.26a52.89,52.89,0,0,1,11.23.84A.24.24,0,0,0,177.05,447.15Z" style="fill:#263238"></path><path d="M179.2,449.46c-3.4-1.7-8-2.42-11.46-.64-.13.07,0,.26.09.26a52.88,52.88,0,0,1,11.23.83A.24.24,0,0,0,179.2,449.46Z" style="fill:#263238"></path><path d="M139.28,434.73c-3.86-1.85-6.74,4.14-2.88,6S143.14,436.59,139.28,434.73Z" style="fill:#263238"></path><path d="M180.89,435.16c-1-2.28-3.91-1.93-5.7-1a20,20,0,0,0-7.36,7.26.1.1,0,0,0,.06.15.47.47,0,0,0,.48.58c3.26-.51,6.81-.65,9.82-2.14C179.94,439.18,181.88,437.32,180.89,435.16Zm-7.73,5.26c-1.6.29-3.2.49-4.79.84,1.44-1.41,2.81-2.88,4.39-4.15a22.41,22.41,0,0,1,2.38-1.71c1.29-.77,6-2,4.58,1.89C178.91,439.44,175.06,440.07,173.16,440.42Z" style="fill:#263238"></path><path d="M158.69,438.62c2.76,1.9,6.26,2.55,9.41,3.51a.46.46,0,0,0,.56-.5c.06,0,.11-.07.08-.14a20,20,0,0,0-6.26-8.24c-1.64-1.22-4.43-2-5.78.14S157.07,437.51,158.69,438.62Zm-1.13-2.95c-.9-4.07,3.63-2.17,4.81-1.22a22.26,22.26,0,0,1,2.1,2,58.62,58.62,0,0,1,3.76,4.73c-1.52-.57-3.07-1-4.61-1.51C161.78,439.08,158.05,437.91,157.56,435.67Z" style="fill:#263238"></path><path d="M130.08,441.83c1.06,1.7,32.4,17.12,47.13,24l-41.83-38.34C132,435.1,129.63,441.11,130.08,441.83Z" style="opacity:0.1"></path><path d="M139.75,416.82l34.55,15.11s25-43.05,23.06-60.45C195.17,352,174.13,294,174.13,294H135.2s22,56.73,23.37,76.78C159.11,378.68,139.75,416.82,139.75,416.82Z" style="fill:#1743E3"></path><path d="M139.75,416.82l34.55,15.11s25-43.05,23.06-60.45C195.17,352,174.13,294,174.13,294H135.2s22,56.73,23.37,76.78C159.11,378.68,139.75,416.82,139.75,416.82Z" style="opacity:0.6000000000000001"></path><path d="M144.71,412c5.31,1.87,10.55,4,15.73,6.22,2.57,1.09,5.14,2.19,7.7,3.32s5.15,2.42,7.72,3.64a.08.08,0,1,1-.06.15c-2.68-1-5.36-1.91-8-3s-5.17-2.12-7.76-3.19c-5.2-2.16-10.38-4.42-15.44-6.91A.14.14,0,0,1,144.71,412Z" style="fill:#263238"></path><path d="M160.7,382.35q1-2.79,1.93-5.59a24.44,24.44,0,0,0,1.44-5.76,19.46,19.46,0,0,0-.8-6.25c-.48-1.93-11.34-32.79-13.76-40.47q-4.08-13-8.63-25.86c-.1-.27.33-.37.43-.1,5.54,15.3,21.59,62.24,22.11,64.25a44.59,44.59,0,0,1,1.27,5.81c.47,3.92-1,7.62-2.28,11.26-1.3,3.82-8.62,22.63-12.63,30.7-.05.09-.19,0-.15-.06C152.66,402.91,159.36,386.15,160.7,382.35Z" style="fill:#263238"></path><path d="M178.25,471c-2,.64-58.53.1-60.68-1.28-.81-.52-1.22-8.76-1.42-18.74,0-2.15-.07-4.37-.09-6.63-.15-14.67,0-30.23,0-30.23l37.83.26-1.08,30.21-.24,6.64s21.56,9.89,23.75,11.66S180.23,470.39,178.25,471Z" style="fill:#ffc4c0"></path><path d="M178.25,471c-2,.64-58.53.1-60.68-1.28-1-.64-1.38-12.67-1.51-25.37l36.79.24-.24,6.64s21.56,9.89,23.75,11.66S180.23,470.39,178.25,471Z" style="fill:#fff"></path><path d="M178.25,471c-2,.64-58.53.1-60.68-1.28-.81-.52-1.22-8.76-1.42-18.74l36.46.25s21.56,9.89,23.75,11.66S180.23,470.39,178.25,471Z" style="fill:#1743E3"></path><path d="M177.46,468.76c-9.48-.32-47.73-.73-57.13-.33-.07,0-.08.05,0,.06,9.39.52,47.65.62,57.13.43C177.66,468.91,177.66,468.77,177.46,468.76Z" style="fill:#263238"></path><path d="M172.74,460.85a7.66,7.66,0,0,0-5.69,2.26,7.44,7.44,0,0,0-2.17,5c0,.06.11.06.12,0a8.79,8.79,0,0,1,7.74-7.18A.06.06,0,1,0,172.74,460.85Z" style="fill:#263238"></path><path d="M156.28,452.24c-3.79-.09-8.2,1.2-10.59,4.29-.09.11.08.24.19.19a52.81,52.81,0,0,1,10.46-4A.23.23,0,0,0,156.28,452.24Z" style="fill:#263238"></path><path d="M159.2,453.41c-3.79-.09-8.2,1.2-10.59,4.29-.1.11.08.24.19.19a52.81,52.81,0,0,1,10.46-4A.23.23,0,0,0,159.2,453.41Z" style="fill:#263238"></path><path d="M162.12,454.58c-3.79-.09-8.21,1.2-10.59,4.29-.1.11.07.24.19.19a52.58,52.58,0,0,1,10.46-4A.23.23,0,0,0,162.12,454.58Z" style="fill:#263238"></path><path d="M165,455.75c-3.8-.09-8.21,1.2-10.6,4.29-.09.11.08.24.2.19a52.58,52.58,0,0,1,10.46-4A.23.23,0,0,0,165,455.75Z" style="fill:#263238"></path><path d="M122.83,459.44c-4.25,0-4.31,6.59,0,6.62S127.1,459.47,122.83,459.44Z" style="fill:#263238"></path><path d="M160.48,442.15c-1.9-1.61-4.34-.08-5.54,1.57a19.91,19.91,0,0,0-3.54,9.67c0,.08,0,.11.12.1a.46.46,0,0,0,.68.32c2.72-1.84,5.85-3.48,7.92-6.1C161.33,446.18,162.28,443.68,160.48,442.15Zm-4.73,8c-1.32.94-2.67,1.81-3.95,2.8a59.75,59.75,0,0,1,2.19-5.61,21,21,0,0,1,1.41-2.54c.84-1.25,4.59-4.38,4.93-.25C160.52,446.85,157.32,449.05,155.75,450.17Z" style="fill:#263238"></path><path d="M142,454.7c3.3.54,6.71-.37,10-.84a.47.47,0,0,0,.29-.69.1.1,0,0,0,0-.16,19.86,19.86,0,0,0-9.14-4.75c-2-.41-4.82.1-5.14,2.58S140,454.39,142,454.7Zm-2.27-2.18c-2.54-3.28,2.35-3.5,3.81-3.14a23,23,0,0,1,2.76.93,59.88,59.88,0,0,1,5.39,2.66c-1.61.13-3.2.4-4.8.6C144.94,453.8,141.09,454.33,139.69,452.52Z" style="fill:#263238"></path><path d="M114.48,442.67h39.3s1.06-41,2.49-55.88c1.52-15.79,1.67-65.14,1.67-65.14l4.41-1.41c5.54-3.49,11.14-21.32,11.78-26.24H122.75s-7.49,21.4-3.48,34.63c0,0-.2,46.5-1,54.84C116.64,399.15,114.48,442.67,114.48,442.67Z" style="fill:#1743E3"></path><path d="M114.48,442.67h39.3s1.06-41,2.49-55.88c1.52-15.79,1.67-65.14,1.67-65.14l4.41-1.41c5.54-3.49,11.14-21.32,11.78-26.24H122.75s-7.49,21.4-3.48,34.63c0,0-.2,46.5-1,54.84C116.64,399.15,114.48,442.67,114.48,442.67Z" style="opacity:0.6000000000000001"></path><path d="M163.56,319.54a88.42,88.42,0,0,0-12,4.29c-.15.07-.05.25.11.19,4-1.33,8.14-2.6,12.08-4.11C164.08,319.8,163.88,319.46,163.56,319.54Z" style="fill:#263238"></path><path d="M164.84,298.24c0-.11-.26-.13-.26,0a79.37,79.37,0,0,1-.67,10.37c-.19,1.6-1.86,10.43-5.46,9.79-.6-.11-.91-.56-1-1.26a8.79,8.79,0,0,1,.48-2.71,56,56,0,0,0,.93-5.58,39.32,39.32,0,0,0-.15-10.45c0-.12-.23-.11-.23,0a74.35,74.35,0,0,1-1.09,14.43c-.46,2.3-2,5.76,1.16,6.11s5.24-5.44,5.63-7A41.14,41.14,0,0,0,164.84,298.24Z" style="fill:#263238"></path><path d="M158.55,318.63a11.86,11.86,0,0,0-.81,1.83,3.23,3.23,0,0,0-.34,1.51c0,.09.18.1.25,0a5,5,0,0,0,.84-1.47c.27-.57.56-1.13.81-1.7C159.47,318.46,158.75,318.26,158.55,318.63Z" style="fill:#263238"></path><path d="M117.25,435.47c5.62-.35,11.27-.42,16.9-.41,2.8,0,5.59,0,8.39.06s5.68.23,8.53.35c.1,0,.1.16,0,.17-2.85.13-5.67.32-8.52.37s-5.59.07-8.39.09c-5.63,0-11.29,0-16.91-.35A.14.14,0,1,1,117.25,435.47Z" style="fill:#263238"></path><path d="M157.84,321.5a.13.13,0,0,1,.26,0c.26,12.9-2.53,91-3.4,98.82a.08.08,0,1,1-.16,0C154.66,413.34,157.29,325.37,157.84,321.5Z" style="fill:#263238"></path><path d="M127.18,312.42c3.58-.48,7.4-.94,9.85-3.93a13.29,13.29,0,0,0,2.37-4.72c.57-1.93.77-3.95,1.34-5.88,0-.08.13-.05.13,0a19.27,19.27,0,0,1-.74,6.46,12.84,12.84,0,0,1-2.52,4.81c-2.61,3-6.65,3.46-10.41,3.42C127.1,312.6,127.07,312.43,127.18,312.42Z" style="fill:#263238"></path><path d="M123.94,340.1c.27-4.66.55-9.25-.57-13.83a38.1,38.1,0,0,1-1.27-7.34,48.8,48.8,0,0,1,.31-7.74,76.94,76.94,0,0,1,3.07-14.71.14.14,0,0,1,.26.08A81.22,81.22,0,0,0,123,310.12c-.52,4.62-.76,9.37.37,13.92a41.78,41.78,0,0,1,1.31,6.44,47.88,47.88,0,0,1,0,6.56c-.24,4.74-2.9,85.6-4,96.23a.09.09,0,0,1-.17,0C121,423.74,123.66,344.86,123.94,340.1Z" style="fill:#263238"></path><path d="M119.86,297.5c0-.05,55.54-1.64,55.54-1.64a8.59,8.59,0,0,0,1.12-6.76c-2.54-10.66-10.18-32.81-15.86-46.21-3.42-8.07-11.91-8.82-17.53-4.35-11.2,8.91-21.51,38-24.07,50.82A13.78,13.78,0,0,0,119.86,297.5Z" style="fill:#a6a6a6"></path><path d="M146.79,238c.29,1,5.37,7.23,9.92,6.78,1.48-.14,1-8.26,1-8.26l.1-.61,1.46-8.5-11.66-6.61S146.68,237.57,146.79,238Z" style="fill:#ffc4c0"></path><path d="M159.32,227.4l-1.46,8.5-.1.61s.07,1.47.05,3.17c-6.26-.62-9.34-5.14-10.74-8.3.25-4.85.59-10.58.59-10.58Z" style="fill:#263238"></path><path d="M173,208c7.06,18.57-3.27,24.89-7.27,26.4-3.63,1.38-16.19,5.6-25.12-12.13s-2.53-26.88,5.62-30.47S166,189.39,173,208Z" style="fill:#ffc4c0"></path><path d="M169,222.1a5.2,5.2,0,0,1-1.58,2.09,2.33,2.33,0,0,1-1.35.46c-1.06,0-1.33-.89-1.36-1.72a6,6,0,0,1,.12-1.31A6.74,6.74,0,0,0,169,222.1Z" style="fill:#fff"></path><path d="M164.69,223a1.49,1.49,0,0,0,0,.21,4.39,4.39,0,0,0,1.19.22Z" style="fill:#dbdbdb"></path><path d="M166.77,223.57a4.57,4.57,0,0,0,1.28,0,1.33,1.33,0,0,0,.19-.24C167.76,223.42,167.26,223.48,166.77,223.57Z" style="fill:#dbdbdb"></path><path d="M169.37,211c2.09-.69,3.31,3.54,1.38,4.18S167.61,211.58,169.37,211Z" style="fill:#263238"></path><path d="M159.78,214.26c-2.12.61-.75,4.8,1.22,4.23S161.55,213.75,159.78,214.26Z" style="fill:#263238"></path><path d="M170.66,209.69c-.47,0-.9-.07-1.37-.11a2.21,2.21,0,0,1-1.37-.38.69.69,0,0,1-.11-.85,1.74,1.74,0,0,1,1.66-.63,2.56,2.56,0,0,1,1.72.69A.76.76,0,0,1,170.66,209.69Z" style="fill:#263238"></path><path d="M158.18,213.36c.41-.22.75-.5,1.14-.76s.81-.49,1-1a.71.71,0,0,0-.32-.8,1.76,1.76,0,0,0-1.76.26,2.59,2.59,0,0,0-1.15,1.45A.75.75,0,0,0,158.18,213.36Z" style="fill:#263238"></path><path d="M164.21,225.89c.39.24.8.59,1.29.51a3.58,3.58,0,0,0,1.34-.66,0,0,0,0,1,.07,0,1.82,1.82,0,0,1-1.5,1.11,1.43,1.43,0,0,1-1.31-.92C164.06,225.91,164.16,225.86,164.21,225.89Z" style="fill:#263238"></path><path d="M168.84,219.07s.84,1.85,1.11,2.77c0,.08-.18.19-.49.3,0,0,0,0,0,0a4.54,4.54,0,0,1-4.7-.36.1.1,0,0,1,.1-.17,6.8,6.8,0,0,0,4.3-.05c0-.27-1.56-3.16-1.41-3.18.64-.08,1.79-.13,2.21-.15-.52-1.22-2.17-4.6-3.11-6.82-.06-.14.15-.25.22-.13a62.68,62.68,0,0,1,4.06,7.45C171.19,219,169.25,219.12,168.84,219.07Z" style="fill:#263238"></path><path d="M142.4,224.13c3.73-1.19,2.11-10.88,2.11-10.88s4.44-2.62,4.4-11.68c0,0,4.78,8.09,20.29,3.37a13.77,13.77,0,0,0-2.61-8.06,57.72,57.72,0,0,1,5.51,7.84s1.46-13.85-10.61-16.51c-4.8-1.06-11.55.52-21,7.46,0,0-3.08-5.85-4.12-4.83s2.27,6.41,2.27,6.41-4.8-.6-5.39.48,4.06,1.31,4.06,1.31a9.13,9.13,0,0,0-4,11.26C135.7,217.46,140.56,224.72,142.4,224.13Z" style="fill:#263238"></path><path d="M138.56,198.71a8.35,8.35,0,0,0-7.17,8.42,15.45,15.45,0,0,0,2.17,6.68,29.22,29.22,0,0,0,4.5,5.88c.1.1.24-.07.14-.16a22.11,22.11,0,0,1-3.77-5.63,20,20,0,0,1-2.12-6.12,8,8,0,0,1,6.3-8.84C138.74,198.91,138.69,198.69,138.56,198.71Z" style="fill:#263238"></path><path d="M152,187.61a32.57,32.57,0,0,0-7.26,4.23,23.74,23.74,0,0,0-5.65,5.62.11.11,0,0,0,.17.14,42.41,42.41,0,0,1,12.51-8.7c4.24-2.06,9.53-3,13.57,0a.07.07,0,0,0,.09-.1C161.76,185.57,156.37,185.87,152,187.61Z" style="fill:#263238"></path><path d="M146.28,220.07s-5.86-4.78-8.15-2.53,3.31,10,6.82,10.29a3.36,3.36,0,0,0,3.84-3Z" style="fill:#ffc4c0"></path><path d="M139.79,219.72a0,0,0,0,0,0,.09c2.48.27,4.24,2,5.67,3.92a1.85,1.85,0,0,0-2.81.27c0,.05,0,.13.1.1a2,2,0,0,1,2.38.07,9.79,9.79,0,0,1,1.55,1.47c.16.17.49,0,.35-.25l0,0C146.26,222.49,142.92,219.15,139.79,219.72Z" style="fill:#263238"></path><path d="M121.79,289c.29-.42,27-4.37,33.88-14.36,3-4.43-1-25.43-4.76-30.81-5.12-7.37-13,0-13,0l-.65-2.68s8.62-4.58,12.22-3.25c6.75,2.47,17.4,28.76,10.53,40.8-5.45,9.55-35.61,16.5-38.65,17Z" style="fill:#263238"></path><path d="M120.78,299.41c2.51-2.05.49-14.37,5.13-27.47s15-29.25,14.27-30.3c-1.11-1.57-10.78-2.06-14.53.61-4.75,3.38-13.15,15.29-13.15,15.29s-4.86,2.47-6.2,4.86c-.35.62-1.2,2.74-2.25,5.54-.29.79-3.34,2.7-3.66,3.57-1.83,5-3.67,9.65-5,13.68-.75,2.32,1.2,4.42,1.26,4.65.23,1,1.85,10.27,3.17,11.42S110.58,307.72,120.78,299.41Z" style="fill:#37474f"></path><g style="opacity:0.8"><path d="M117.64,294.07c.44-2,.3-1.35.73-3.33s.92-3.88,1.27-5.83c0-.22.08-.41-.19-.55a6,6,0,0,0-1.6-.32c-1.34-.24-2.69-.46-4-.64-2.8-.39-6-.8-8.78-.95-.26,0-.33.31-.06.33a129.15,129.15,0,0,1,13.35,1.69c.23,0,.78.09.91.28a1.7,1.7,0,0,1-.1.43c-.1.43-.19.87-.29,1.3l-.58,2.58c-.39,1.73-.21.85-.6,2.58-.18.79-.36,1.58-.53,2.37-.1.43-.2.86-.29,1.29,0,.22-.08.44-.15.65a1,1,0,0,1-.8.78c-.89.29-1.88.45-2.8.66l-3.11.73a8,8,0,0,1-1.66.37c-.59,0-1.12-.62-1.5-.92l-3.49-2.76a4.41,4.41,0,0,1-.89-1c-.22-.41,1.83-9.41,2.61-11.24,0-.09-.23-.15-.26-.07a98.89,98.89,0,0,0-3.1,11.14c0,.75.68,1.18,1.3,1.67l2.63,2.06c.45.36.9.72,1.36,1.07a2,2,0,0,0,1.11.53,4.31,4.31,0,0,0,1.19-.21l1.82-.44,3.49-.84c.77-.18,2-.28,2.42-.91a2.76,2.76,0,0,0,.3-1Z" style="fill:#263238"></path><path d="M119,285.43c-2.5.85-5,1.69-7.57,2.41-.33.1-.66.2-1,.28a1.24,1.24,0,0,1-1.36-.32l-1.3-1.12c-1-.85-2-1.68-3-2.52-.08-.07-.21,0-.14.08,1,1,2.08,2,3.15,3,.73.68,1.4,1.63,2.66,1.31,1.44-.36,2.85-.88,4.23-1.36s3-1.08,4.4-1.68C119.07,285.47,119,285.41,119,285.43Z" style="fill:#263238"></path><path d="M110.64,287a.53.53,0,0,0-.26-.44.88.88,0,0,0-.71,0c-.1,0,0,.17.07.13a.54.54,0,0,1,.28,0,.28.28,0,0,1,.13,0l0,.05.06.1,0,0s0,0,0,0a.72.72,0,0,1,0,.25.38.38,0,0,1-.29.32.24.24,0,0,1-.26-.06.39.39,0,0,1-.1-.25s0,0,0,0a.38.38,0,0,0,.19.41.63.63,0,0,0,.58-.08A.55.55,0,0,0,110.64,287Z" style="fill:#263238"></path></g><g style="opacity:0.8"><path d="M129.42,258.77l1.13-2.38c.65-1.38,1.36-2.74,2-4.15.07-.16.13-.29,0-.45a5.17,5.17,0,0,0-1.15-.58q-1.44-.69-2.91-1.32c-2-.87-4.31-1.83-6.4-2.52-.2-.07-.3.16-.11.23a101.65,101.65,0,0,1,9.7,4c.17.08.57.22.63.4a1.68,1.68,0,0,1-.15.3l-.44.92c-.3.62-.59,1.23-.89,1.84-.59,1.23-.3.6-.9,1.83l-.81,1.68c-.14.31-.29.62-.44.93a4.81,4.81,0,0,1-.22.46.72.72,0,0,1-.74.42c-.71,0-1.48-.05-2.2-.08l-2.46-.09a5.76,5.76,0,0,1-1.31-.06c-.43-.13-.73-.7-1-1l-2.13-2.81a3.67,3.67,0,0,1-.49-.94,52,52,0,0,1,3.91-8s-.14-.15-.18-.1a73.48,73.48,0,0,0-4.26,7.8c-.15.56.3,1,.68,1.54l1.61,2.1.83,1.09a1.56,1.56,0,0,0,.74.62,3.27,3.27,0,0,0,.93.09l1.43.05,2.76.08c.61,0,1.55.2,2-.19a2.08,2.08,0,0,0,.4-.69Z" style="fill:#263238"></path><path d="M131.93,252.5c-2,.13-4.05.24-6.09.27h-.79a1,1,0,0,1-1-.52l-.77-1.12-1.83-2.54c0-.06-.16,0-.12,0,.6,1,1.2,2,1.83,2.92.43.66.76,1.52,1.77,1.54s2.28-.08,3.4-.15,2.4-.21,3.58-.37C132,252.55,132,252.49,131.93,252.5Z" style="fill:#263238"></path><path d="M125.41,252a.41.41,0,0,0-.12-.38.67.67,0,0,0-.53-.14c-.08,0-.06.12,0,.11a.42.42,0,0,1,.22,0,.16.16,0,0,1,.08.06l0,0s0,.06,0,.09,0,0,0,0v0a1.23,1.23,0,0,1,0,.19.29.29,0,0,1-.28.18.18.18,0,0,1-.18-.1.31.31,0,0,1,0-.21s0,0,0,0a.3.3,0,0,0,.07.35.52.52,0,0,0,.45.06A.43.43,0,0,0,125.41,252Z" style="fill:#263238"></path></g><path d="M103.92,268.39s-2.45,8.25-2.54,9.09-2.7,10-3.39,10.52a4,4,0,0,0-1,1" style="fill:#263238"></path><path d="M112.5,257.54s-4.38,10.48-4.74,11.21-4,10.48-4.58,11.32a17.78,17.78,0,0,1-2.23,2.84" style="fill:#263238"></path><path d="M135.15,247c-17.79,16.6-31.74,44.89-22.72,47,7.79,1.84,30-2.83,36.23-5,2.73-1-2.86-23.81-5.72-22.6a38.06,38.06,0,0,1-6.78,2.14,116,116,0,0,0,7.33-16.17C148,239.85,141.83,240.8,135.15,247Z" style="fill:#ffc4c0"></path><path d="M168.69,259.51a3.45,3.45,0,0,1,.17,3.94,5.1,5.1,0,0,1,2.73,2.16c1,1.84-1.42,4.26-1.42,4.26a6.27,6.27,0,0,1,2.51,2.74c.8,1.86-1.32,4.65-1.32,4.65a5.55,5.55,0,0,1,.7,3.8c-.77,3.47-5.88,5.3-9.12,6.49s-13.55,1.53-15.51,1.8l-7.82-20.74s13-9.47,17-10.33C160,257.56,167,257.43,168.69,259.51Z" style="fill:#ffc4c0"></path><path d="M168.59,263.17c-3.77-.09-7.37.93-11,1.76a.06.06,0,0,0,0,.12c3.62-.86,7.37-1,11-1.7A.09.09,0,0,0,168.59,263.17Z" style="fill:#263238"></path><path d="M170,269.62a9.91,9.91,0,0,0-2.52.52c-.88.25-1.75.51-2.63.78q-2.61.82-5.18,1.77c-.07,0,0,.16,0,.13,1.74-.54,3.48-1.06,5.24-1.53.88-.24,1.77-.46,2.65-.68a11.75,11.75,0,0,0,2.47-.75A.13.13,0,0,0,170,269.62Z" style="fill:#263238"></path><path d="M171.29,277.28a6.7,6.7,0,0,0-2.25.59c-.78.26-1.57.53-2.37.78-1.58.52-3.16,1-4.76,1.49-.08,0,0,.15,0,.13,1.63-.46,3.26-.9,4.88-1.37l2.39-.71a6.25,6.25,0,0,0,2.11-.83A0,0,0,0,0,171.29,277.28Z" style="fill:#263238"></path><path d="M142.59,265.35l6.07,25.48s-32.84,7.4-38.36,2.85,5.09-30.79,28.7-50.53c8.29-6.93,8.41,2.33,5.24,10.73-3.67,9.73-6.15,13.78-6.15,13.78Z" style="fill:#a6a6a6"></path><path d="M142.55,265.34c-.81.3-10.75,5.31-11.45,5.71a3.55,3.55,0,0,0-1,.2c-.4.11-.79.21-1.18.33l-2.24.7a33,33,0,0,1-4.52,1.35c-.08,0-.05.13,0,.12a42,42,0,0,0,4.69-1c.78-.2,1.55-.41,2.32-.63l-.83.48c-3.25,1.88-6.44,3.84-9.67,5.74-.25.15-.51.49.13.16,4-2,23.19-12.35,23.88-12.91C142.81,265.51,142.7,265.29,142.55,265.34Z" style="fill:#263238"></path><path d="M143.63,258.27c-.61.69-1.31,1.27-1.93,1.94a.52.52,0,0,1-.1.11c.94-2.12,1.82-4.27,2.7-6.41a0,0,0,0,0-.06,0c-1.35,2.61-2.71,5.22-3.94,7.89-.62,1.35-2.79,6.13-2.7,6.32s.16.16.25.06,1.82-3.63,1.94-3.88c.38-.81.76-1.62,1.13-2.44l.05-.07c.12-.16.27-.29.4-.44.27-.31.54-.63.8-.95.55-.64,1-1.36,1.55-2C143.78,258.31,143.69,258.21,143.63,258.27Z" style="fill:#263238"></path><path d="M148.38,289.31c0-.07-.13-.05-.11,0s.31,1.28.32,1.33c-1.48.21-3,.57-4.42.84l-4.59.84c-3.1.55-6.19,1.1-9.29,1.6-1.77.29-3.54.6-5.32.81-.08,0,0,.11,0,.11,3.13-.4,6.27-.7,9.38-1.18s6.21-1,9.28-1.68c1.74-.38,3.55-.69,5.24-1.23A11.76,11.76,0,0,0,148.38,289.31Z" style="fill:#263238"></path></g></svg>
